<svg version="1.1" xmlns="http://www.w3.org/2000/svg" viewBox="0 0 2053.573793521453 1031.1223458038426" width="2053.573793521453" height="1031.1223458038426">
  <!-- svg-source:excalidraw -->
  
  <defs>
    <style class="style-fonts">
      
    </style>
    
  </defs>
  <g stroke-linecap="round" transform="translate(10 10) rotate(0 1016.7868967607266 505.5611729019213)"><path d="M0 0 C445.05 -2.07, 891.13 -1.76, 2033.57 0 M0 0 C612.88 2.23, 1225.93 2.39, 2033.57 0 M2033.57 0 C2033.38 203.08, 2033.32 406.16, 2033.57 1011.12 M2033.57 0 C2036.31 402.54, 2036.64 804.88, 2033.57 1011.12 M2033.57 1011.12 C1403.01 1008.07, 771.5 1007.75, 0 1011.12 M2033.57 1011.12 C1535.68 1016.61, 1037.75 1016.9, 0 1011.12 M0 1011.12 C3.82 776.33, 3.97 541.48, 0 0 M0 1011.12 C-1.06 671.46, -1.35 331.22, 0 0" stroke="transparent" stroke-width="2" fill="none"></path></g><g stroke-linecap="round" transform="translate(1714.213620348438 589.928539510855) rotate(0 9.299931990307414 10.828407584276988)"><path d="M4.65 0 C8.06 -1.31, 9.07 -1.38, 13.95 0 C14.48 -1.87, 17.66 1.67, 18.6 4.65 C19.96 6.79, 17.81 12.14, 18.6 17.01 C16.43 22.34, 17.16 22.84, 13.95 21.66 C12.2 21.86, 7.03 21.45, 4.65 21.66 C1.14 20.36, -1.48 17.68, 0 17.01 C-1.29 11.28, -1.78 7.44, 0 4.65 C0.1 0.66, 2.56 1.63, 4.65 0" stroke="none" stroke-width="0" fill="#40c057"></path><path d="M4.65 0 C6.13 -0.94, 9.51 -0.57, 13.95 0 M13.95 0 C16.12 1.56, 19.2 -0.11, 18.6 4.65 M18.6 4.65 C17.63 8.84, 17.88 9.7, 18.6 17.01 M18.6 17.01 C18.84 18.7, 18.76 21.34, 13.95 21.66 M13.95 21.66 C11.62 22.47, 9.73 21.08, 4.65 21.66 M4.65 21.66 C1.46 22.55, 1.78 21.33, 0 17.01 M0 17.01 C-0.63 13.75, 0.33 9.84, 0 4.65 M0 4.65 C1.57 1.33, 0.68 -1.56, 4.65 0" stroke="transparent" stroke-width="1.5" fill="none" stroke-dasharray="8 9"></path></g><g stroke-linecap="round" transform="translate(775.0034988104428 638.0859210808471) rotate(0 9.299931990307414 20.728943886442835)"><path d="M4.65 0 C8.33 0.2, 11.06 -1.46, 13.95 0 C13.6 -0.66, 19.1 -1.08, 18.6 4.65 C15.58 11.65, 14.87 19.82, 18.6 36.81 C17.72 37.41, 18.47 41.8, 13.95 41.46 C11.36 42.41, 6.69 40.11, 4.65 41.46 C1.26 42.72, 1.15 40.69, 0 36.81 C-2.96 30.96, -3.36 16.73, 0 4.65 C2.94 4.46, -1.21 2.82, 4.65 0" stroke="none" stroke-width="0" fill="#40c057"></path><path d="M4.65 0 C7.02 0.89, 10.71 -0.84, 13.95 0 M13.95 0 C15.7 1.48, 20.05 0.25, 18.6 4.65 M18.6 4.65 C17.64 14.03, 17.83 23.44, 18.6 36.81 M18.6 36.81 C16.82 40.87, 16.36 40.9, 13.95 41.46 M13.95 41.46 C10.27 41.15, 7.7 41.81, 4.65 41.46 M4.65 41.46 C0.67 39.46, 0.33 38.95, 0 36.81 M0 36.81 C0.74 26.31, -1.67 15.48, 0 4.65 M0 4.65 C0.92 1.73, 0.93 1.85, 4.65 0" stroke="transparent" stroke-width="1.5" fill="none" stroke-dasharray="8 9"></path></g><g stroke-linecap="round" transform="translate(1512.9543085902963 409.16737958808335) rotate(0 9.299931990307414 32.959018142059676)"><path d="M4.65 0 C9.53 1.16, 10.79 1.11, 13.95 0 C17.12 -0.35, 20.31 -0.29, 18.6 4.65 C16.49 21.06, 16.88 37.3, 18.6 61.27 C15.26 63.62, 13.69 69.42, 13.95 65.92 C9.98 67.74, 7.86 64.95, 4.65 65.92 C1.49 64.62, -1.27 66.21, 0 61.27 C-1.57 44.55, 2.93 30.03, 0 4.65 C1.18 1.16, -1.03 -0.75, 4.65 0" stroke="none" stroke-width="0" fill="#40c057"></path><path d="M4.65 0 C7.73 -1.01, 11.57 0.53, 13.95 0 M13.95 0 C17.14 -1.41, 18.44 2.25, 18.6 4.65 M18.6 4.65 C20.72 21.97, 17.4 43.88, 18.6 61.27 M18.6 61.27 C17.05 62.98, 18.68 67.54, 13.95 65.92 M13.95 65.92 C12.1 66.62, 9.74 66.25, 4.65 65.92 M4.65 65.92 C2.69 64.64, 1.87 64.02, 0 61.27 M0 61.27 C0.37 43.91, 1.83 26.74, 0 4.65 M0 4.65 C1 3.48, 2.72 1.95, 4.65 0" stroke="transparent" stroke-width="1.5" fill="none" stroke-dasharray="8 9"></path></g><g stroke-linecap="round" transform="translate(1143.9789037003695 288.24758286526503) rotate(0 9.299931990307414 52.760090746391484)"><path d="M4.65 0 C6.2 0.13, 7.56 0.51, 13.95 0 C16.16 -2.38, 19.31 1.55, 18.6 4.65 C18.61 34.76, 17.35 65.52, 18.6 100.87 C16.07 104.3, 15.67 106.96, 13.95 105.52 C10.66 107.04, 8.74 104.71, 4.65 105.52 C0.43 107.78, 1.71 103.76, 0 100.87 C3.57 69.1, 3.44 31.27, 0 4.65 C-1.37 2.59, 0.82 2.59, 4.65 0" stroke="none" stroke-width="0" fill="#40c057"></path><path d="M4.65 0 C8.1 -0.06, 11.21 0.71, 13.95 0 M13.95 0 C17.72 -0.76, 18.75 3.24, 18.6 4.65 M18.6 4.65 C18.33 36.88, 17.7 68.14, 18.6 100.87 M18.6 100.87 C20.26 104.34, 17 104.57, 13.95 105.52 M13.95 105.52 C10.43 105.36, 7.76 104.87, 4.65 105.52 M4.65 105.52 C2.56 106.81, 0.25 104.11, 0 100.87 M0 100.87 C0.81 70.34, 0.39 33.99, 0 4.65 M0 4.65 C-1.1 0.67, 0.12 1.65, 4.65 0" stroke="transparent" stroke-width="1.5" fill="none" stroke-dasharray="8 9"></path></g><g stroke-linecap="round" transform="translate(1244.6085595794405 314.86265668125) rotate(0 9.299931990307414 70.52281764145391)"><path d="M4.65 0 C6.86 -1.3, 8.09 -0.87, 13.95 0 C20.09 -0.32, 15.22 3.98, 18.6 4.65 C16.12 53.44, 14.08 106.11, 18.6 136.4 C16.46 141.47, 17.23 144.38, 13.95 141.05 C12.58 140.54, 9.42 139.74, 4.65 141.05 C3.19 143.15, -2.15 136.53, 0 136.4 C2.15 109.51, 4.17 85.38, 0 4.65 C3.58 3.87, 1.56 -0.93, 4.65 0" stroke="none" stroke-width="0" fill="#40c057"></path><path d="M4.65 0 C7.59 -0.95, 10.6 0.66, 13.95 0 M13.95 0 C18.4 1.52, 18.73 2.65, 18.6 4.65 M18.6 4.65 C18.62 38.48, 19.32 68.18, 18.6 136.4 M18.6 136.4 C20.25 137.79, 15.52 142.77, 13.95 141.05 M13.95 141.05 C10.53 140.51, 8.76 140.76, 4.65 141.05 M4.65 141.05 C-0.22 142.77, -1.98 140.18, 0 136.4 M0 136.4 C-0.47 104.49, -0.65 70.72, 0 4.65 M0 4.65 C-0.61 1.41, 1.01 0.5, 4.65 0" stroke="transparent" stroke-width="1.5" fill="none" stroke-dasharray="8 9"></path></g><g stroke-linecap="round" transform="translate(909.1763733158707 449.1563666556408) rotate(0 9.299931990307414 10.828407584276988)"><path d="M4.65 0 C7.94 0.31, 9.09 -1.34, 13.95 0 C20.52 -1.61, 17.75 -1.71, 18.6 4.65 C19.05 8.96, 16.52 11.12, 18.6 17.01 C18.79 16.54, 15.39 24.72, 13.95 21.66 C11.64 20.76, 8.63 22.39, 4.65 21.66 C0.34 23.03, 0.23 22.34, 0 17.01 C1.77 16.16, -1.49 12.4, 0 4.65 C-1.07 -0.99, 2.05 2.74, 4.65 0" stroke="none" stroke-width="0" fill="#e8590c"></path><path d="M4.65 0 C7.9 0.35, 10.03 -0.49, 13.95 0 M13.95 0 C17.78 0.16, 19.74 0.12, 18.6 4.65 M18.6 4.65 C17.78 9.01, 17.33 11.7, 18.6 17.01 M18.6 17.01 C16.73 18.13, 17.94 20.11, 13.95 21.66 M13.95 21.66 C10.16 20.99, 7.96 20.9, 4.65 21.66 M4.65 21.66 C1.13 19.95, -1.03 20.55, 0 17.01 M0 17.01 C0.92 11.95, -0.71 8.43, 0 4.65 M0 4.65 C0.28 2.51, 2.4 -1.85, 4.65 0" stroke="transparent" stroke-width="1.5" fill="none" stroke-dasharray="8 9"></path></g><g stroke-linecap="round" transform="translate(607.2874056786579 763.9837235298928) rotate(0 9.299931990307414 20.728943886442835)"><path d="M4.65 0 C6.13 -1.35, 12.17 -0.78, 13.95 0 C16.2 -3.26, 19.18 -0.34, 18.6 4.65 C15.57 12.79, 18.94 21.72, 18.6 36.81 C16.94 42.97, 19.73 42.25, 13.95 41.46 C13.09 42.16, 8.36 42.01, 4.65 41.46 C1.78 43.69, -3.43 41.26, 0 36.81 C-2.77 28.47, -1.55 16.12, 0 4.65 C0.5 4.29, 0.52 -0.9, 4.65 0" stroke="none" stroke-width="0" fill="#e8590c"></path><path d="M4.65 0 C6.57 -0.58, 9.18 0.04, 13.95 0 M13.95 0 C18.19 -1.43, 17.73 0.73, 18.6 4.65 M18.6 4.65 C16.43 15.52, 16.53 22.12, 18.6 36.81 M18.6 36.81 C19.49 38.36, 18.33 40.98, 13.95 41.46 M13.95 41.46 C12.06 40.65, 8.41 40.6, 4.65 41.46 M4.65 41.46 C0.52 41.91, 1.33 38.28, 0 36.81 M0 36.81 C-1.53 26.23, 0.07 15.06, 0 4.65 M0 4.65 C0.85 -0.3, 1.9 -0.11, 4.65 0" stroke="transparent" stroke-width="1.5" fill="none" stroke-dasharray="8 9"></path></g><g stroke-linecap="round" transform="translate(439.57131254687306 597.3578446179081) rotate(0 9.299931990307414 32.959018142059676)"><path d="M4.65 0 C9.24 -0.62, 10.21 -1.38, 13.95 0 C17.63 -1.89, 19.35 2.47, 18.6 4.65 C17.89 19.1, 16.04 43.75, 18.6 61.27 C21.28 65.16, 15.97 68.44, 13.95 65.92 C11.06 66.63, 9.41 67.03, 4.65 65.92 C-1.88 67.27, -0.64 67.38, 0 61.27 C-0.42 37.45, 1.15 21.45, 0 4.65 C-1.03 0.65, 2.98 2.26, 4.65 0" stroke="none" stroke-width="0" fill="#e8590c"></path><path d="M4.65 0 C8.06 0.13, 11.32 -0.61, 13.95 0 M13.95 0 C16.18 -0.82, 18.64 0.3, 18.6 4.65 M18.6 4.65 C16.17 25.12, 18.94 47.99, 18.6 61.27 M18.6 61.27 C19.88 63.89, 16.8 65.06, 13.95 65.92 M13.95 65.92 C11.61 65.05, 9.19 66.05, 4.65 65.92 M4.65 65.92 C2.88 64.29, 1.06 65.7, 0 61.27 M0 61.27 C0.66 47.65, 1.23 30.28, 0 4.65 M0 4.65 C0.35 1.44, 1.9 0.4, 4.65 0" stroke="transparent" stroke-width="1.5" fill="none" stroke-dasharray="8 9"></path></g><g stroke-linecap="round" transform="translate(1445.8678713375823 434.2259481747269) rotate(0 9.299931990307414 52.760090746391484)"><path d="M4.65 0 C6.32 -1.44, 9.04 -0.8, 13.95 0 C17.8 0.92, 19.26 -1.62, 18.6 4.65 C17.03 30.76, 21.37 51.53, 18.6 100.87 C17.52 106.5, 15.24 109.06, 13.95 105.52 C10.83 106.62, 5.9 106.21, 4.65 105.52 C0.91 108.53, 2.73 101.69, 0 100.87 C1.02 72.77, -0.51 38.3, 0 4.65 C1.43 3.81, -1.07 -0.69, 4.65 0" stroke="none" stroke-width="0" fill="#e8590c"></path><path d="M4.65 0 C7.41 -0.67, 8.71 -0.39, 13.95 0 M13.95 0 C17.09 -1.25, 20.53 -0.42, 18.6 4.65 M18.6 4.65 C18.59 37.5, 18.98 72.96, 18.6 100.87 M18.6 100.87 C18.35 103.11, 15.65 107.2, 13.95 105.52 M13.95 105.52 C11.43 105.65, 10.48 104.69, 4.65 105.52 M4.65 105.52 C2.61 106.85, -0.85 102.65, 0 100.87 M0 100.87 C0.72 66.42, 0.22 35.55, 0 4.65 M0 4.65 C0.35 1.95, 1.95 -1.75, 4.65 0" stroke="transparent" stroke-width="1.5" fill="none" stroke-dasharray="8 9"></path></g><g stroke-linecap="round" transform="translate(1043.3492478212986 217.7159603087057) rotate(0 9.299931990307414 70.52281764145391)"><path d="M4.65 0 C7.29 -0.73, 9.75 0.58, 13.95 0 C17.71 -3.17, 16.42 1.74, 18.6 4.65 C20.19 31.92, 16.43 60.13, 18.6 136.4 C16.79 143.04, 18.74 139.83, 13.95 141.05 C9.21 141.78, 7.36 142.55, 4.65 141.05 C4.28 138.76, 0.74 138.43, 0 136.4 C-1.36 105.26, 1.1 78.2, 0 4.65 C-2.62 0.86, 4.21 1.95, 4.65 0" stroke="none" stroke-width="0" fill="#e8590c"></path><path d="M4.65 0 C7.11 -0.32, 10.4 -0.51, 13.95 0 M13.95 0 C18.98 -1.97, 19.75 -0.32, 18.6 4.65 M18.6 4.65 C20.47 30.69, 18.93 56.84, 18.6 136.4 M18.6 136.4 C17.2 141.17, 15.44 140.62, 13.95 141.05 M13.95 141.05 C12.57 140.31, 10.45 141.69, 4.65 141.05 M4.65 141.05 C0.7 139.73, 0.78 139.78, 0 136.4 M0 136.4 C-0.21 90.44, -0.21 45.11, 0 4.65 M0 4.65 C0.4 -0.2, -0.02 1.93, 4.65 0" stroke="transparent" stroke-width="1.5" fill="none" stroke-dasharray="8 9"></path></g><g stroke-linecap="round"><g transform="translate(1354.5105345725399 265.6053415829947) rotate(0 -0.3882681742179557 84.63987601321867)"><path d="M-0.59 1.15 C-0.94 29.19, -1.79 140.33, -1.87 168.48 M1.3 0.7 C1.29 28.86, 0.82 141.69, 0.27 169.6" stroke="#e8590c" stroke-width="4" fill="none"></path></g></g><mask></mask><g stroke-linecap="round" transform="translate(1345.2382154585114 278.16963583985216) rotate(0 9.299931990307414 70.52281764145391)"><path d="M4.65 0 C6.62 -0.56, 10.99 -1.31, 13.95 0 C14.13 -3.13, 16.18 4.21, 18.6 4.65 C20.58 54.85, 14.05 102.42, 18.6 136.4 C17.89 141.19, 16.91 140.94, 13.95 141.05 C11.52 142.05, 6.57 139.54, 4.65 141.05 C3.91 142.14, 3.42 136.84, 0 136.4 C-0.04 108.11, -2.15 80.04, 0 4.65 C-1.59 -1.82, 1.53 3.34, 4.65 0" stroke="none" stroke-width="0" fill="#e8590c"></path><path d="M4.65 0 C7.8 -0.58, 11.1 0.93, 13.95 0 M13.95 0 C18.87 -0.09, 18.51 -0.03, 18.6 4.65 M18.6 4.65 C20.03 51.21, 19.37 100.26, 18.6 136.4 M18.6 136.4 C19.64 140.27, 16.69 141.16, 13.95 141.05 M13.95 141.05 C11.73 141.42, 7.87 140.41, 4.65 141.05 M4.65 141.05 C1.36 139.48, -2 139.91, 0 136.4 M0 136.4 C2.69 100.93, 1.99 65.19, 0 4.65 M0 4.65 C1.68 3.47, 3.46 1.8, 4.65 0" stroke="transparent" stroke-width="1.5" fill="none" stroke-dasharray="8 9"></path></g><g stroke-linecap="round" transform="translate(1311.6949968321544 280.2639776454489) rotate(0 9.299931990307414 70.52281764145391)"><path d="M4.65 0 C8.32 0.42, 11.83 -0.15, 13.95 0 C19.31 2.29, 17.94 3.38, 18.6 4.65 C20.54 49.03, 15.82 84.47, 18.6 136.4 C18.03 136.06, 15.55 143.67, 13.95 141.05 C11.73 140.05, 9.19 141.13, 4.65 141.05 C-1.85 138.9, -2.15 139.47, 0 136.4 C1.78 106.24, 1.43 74.92, 0 4.65 C-2.12 -0.69, 2.42 2.48, 4.65 0" stroke="none" stroke-width="0" fill="#40c057"></path><path d="M4.65 0 C8.6 -0.01, 11.59 0.87, 13.95 0 M13.95 0 C18.88 0.27, 19.81 0.98, 18.6 4.65 M18.6 4.65 C17.7 41.6, 20.18 80.54, 18.6 136.4 M18.6 136.4 C19.08 139.99, 17.13 142.37, 13.95 141.05 M13.95 141.05 C10.8 141.59, 7.8 141.28, 4.65 141.05 M4.65 141.05 C1.9 142.2, 0.55 138.78, 0 136.4 M0 136.4 C-2.46 97.3, -2.27 55.41, 0 4.65 M0 4.65 C1.82 0.59, 2.01 -0.35, 4.65 0" stroke="transparent" stroke-width="1.5" fill="none" stroke-dasharray="8 9"></path></g><g stroke-linecap="round"><g transform="translate(1321.5288320742495 267.3132076705092) rotate(0 -0.3882681742179557 84.63987601321867)"><path d="M-0.23 0.09 C-0.53 28.41, -1.97 141.57, -1.95 169.79 M-1.81 -0.91 C-1.75 27.05, -0.07 139.31, 0.14 167.93" stroke="#40c057" stroke-width="4" fill="none"></path></g></g><mask></mask><g stroke-linecap="round" transform="translate(1009.8060291949416 217.67047588109926) rotate(0 9.299931990307414 70.52281764145391)"><path d="M4.65 0 C5.17 -0.06, 8 -0.11, 13.95 0 C17.94 -0.54, 20.69 -0.66, 18.6 4.65 C18.48 35.8, 17.83 66.45, 18.6 136.4 C21.83 143.03, 19.77 142.94, 13.95 141.05 C9.77 142.08, 9.43 141.81, 4.65 141.05 C1.8 141.38, 2.37 139.4, 0 136.4 C-1.46 98.86, 1.12 57.96, 0 4.65 C3.36 4.69, -0.05 -2.54, 4.65 0" stroke="none" stroke-width="0" fill="#40c057"></path><path d="M4.65 0 C7.82 0.52, 9.77 0.32, 13.95 0 M13.95 0 C17.26 1.57, 20.07 0.2, 18.6 4.65 M18.6 4.65 C19.47 45, 19.36 87.6, 18.6 136.4 M18.6 136.4 C20.18 138.63, 18.14 142.24, 13.95 141.05 M13.95 141.05 C12.53 141.03, 9.47 141.24, 4.65 141.05 M4.65 141.05 C2.57 139.33, 1.89 139.76, 0 136.4 M0 136.4 C1.12 83.9, 0.26 34.72, 0 4.65 M0 4.65 C-0.91 -0.17, 1.71 0.2, 4.65 0" stroke="transparent" stroke-width="1.5" fill="none" stroke-dasharray="8 9"></path></g><g stroke-linecap="round"><g transform="translate(1020.4266387561495 162.6241801170272) rotate(0 -0.3882681742179557 84.63987601321867)"><path d="M-0.79 0.61 C-1.11 28.61, -1.49 140.05, -1.38 168.3 M0.99 -0.12 C1.02 27.98, 1.28 141.26, 1.01 169.33" stroke="#40c057" stroke-width="4" fill="none"></path></g></g><mask></mask><g stroke-linecap="round" transform="translate(976.2628105685847 354.25459903276214) rotate(0 9.299931990307414 70.52281764145391)"><path d="M4.65 0 C7.52 -0.59, 9.41 -1.17, 13.95 0 C14.14 1.98, 18.2 -1.67, 18.6 4.65 C16.62 43.32, 16.7 84.75, 18.6 136.4 C15.47 138.63, 20.4 138.67, 13.95 141.05 C9.4 141.71, 7.65 141.64, 4.65 141.05 C1.45 137.93, -3.17 137.9, 0 136.4 C-0.26 105.54, 2.74 80.23, 0 4.65 C-3.29 1.7, 0.32 3.27, 4.65 0" stroke="none" stroke-width="0" fill="#40c057"></path><path d="M4.65 0 C8.55 -0.8, 12.64 -0.89, 13.95 0 M13.95 0 C17.68 -1.36, 18.38 1.81, 18.6 4.65 M18.6 4.65 C19.39 56.28, 19.62 107.64, 18.6 136.4 M18.6 136.4 C18.97 141.43, 18.38 139.39, 13.95 141.05 M13.95 141.05 C12.26 140.7, 9.37 141.39, 4.65 141.05 M4.65 141.05 C2.88 140.34, 1.52 140.29, 0 136.4 M0 136.4 C-1.59 109.8, -0.34 81.95, 0 4.65 M0 4.65 C0.66 1.76, 2.68 -1.65, 4.65 0" stroke="transparent" stroke-width="1.5" fill="none" stroke-dasharray="8 9"></path></g><g stroke-linecap="round"><g transform="translate(987.3304796807254 385.59684458342736) rotate(0 -0.3882681742179557 84.63987601321867)"><path d="M0.74 -0.62 C0.5 27.51, -0.36 141.18, -0.58 169.61 M-0.33 1.67 C-0.79 29.34, -1.27 139.95, -1.43 167.66" stroke="#40c057" stroke-width="4" fill="none"></path></g></g><mask></mask><g stroke-linecap="round" transform="translate(1110.4356850740126 392.23784796276595) rotate(0 9.299931990307414 52.760090746391484)"><path d="M4.65 0 C7.74 1.12, 10.66 0.39, 13.95 0 C16.72 -0.04, 20.86 3.84, 18.6 4.65 C19.54 29.65, 21.39 61.96, 18.6 100.87 C15.78 101.21, 16.48 102.08, 13.95 105.52 C12.96 103.9, 9.57 104.66, 4.65 105.52 C2.66 106.04, -3.4 101.82, 0 100.87 C-0.99 77.73, 1.13 54.95, 0 4.65 C0.77 1.07, -0.57 -2.24, 4.65 0" stroke="none" stroke-width="0" fill="#40c057"></path><path d="M4.65 0 C7.49 0.46, 9.69 0.01, 13.95 0 M13.95 0 C18.55 1.98, 20.43 1.82, 18.6 4.65 M18.6 4.65 C18.84 39.33, 17.09 72.52, 18.6 100.87 M18.6 100.87 C19.84 103.04, 17.53 106.01, 13.95 105.52 M13.95 105.52 C11.15 105.46, 8.09 106.09, 4.65 105.52 M4.65 105.52 C0.97 106.03, 0.35 105.13, 0 100.87 M0 100.87 C1.86 70.62, -1.12 38.84, 0 4.65 M0 4.65 C-1.27 0.7, 3.37 -0.96, 4.65 0" stroke="transparent" stroke-width="1.5" fill="none" stroke-dasharray="8 9"></path></g><g stroke-linecap="round"><g transform="translate(1120.712528618614 376.26136373506233) rotate(0 -1.0508329373965353 69.40088646010668)"><path d="M0.74 -0.62 C0.61 22.47, -1.46 114.75, -1.82 138.13 M-0.32 1.67 C-0.5 24.93, -2.38 116.63, -2.61 139.31" stroke="#40c057" stroke-width="4" fill="none"></path></g></g><mask></mask><g stroke-linecap="round" transform="translate(640.8306243050149 702.5657923044018) rotate(0 9.299931990307414 52.760090746391484)"><path d="M4.65 0 C5.93 0.16, 9.02 0.1, 13.95 0 C16.19 -0.25, 19.49 1.01, 18.6 4.65 C20.22 38.16, 15.65 74.47, 18.6 100.87 C16.07 105.32, 20.28 109.05, 13.95 105.52 C9.12 107.13, 5.52 106.38, 4.65 105.52 C3.63 106.82, 0.25 104.3, 0 100.87 C-0.88 68.94, -2.03 33.42, 0 4.65 C0.51 4.05, 4.91 3.14, 4.65 0" stroke="none" stroke-width="0" fill="#40c057"></path><path d="M4.65 0 C7.99 -0.11, 10.71 0.53, 13.95 0 M13.95 0 C17.03 0.66, 18.81 3.12, 18.6 4.65 M18.6 4.65 C17.99 38.92, 18.8 75.86, 18.6 100.87 M18.6 100.87 C19.34 104.81, 18.63 104.66, 13.95 105.52 M13.95 105.52 C11.26 105.32, 7.98 105.44, 4.65 105.52 M4.65 105.52 C0.71 105.97, 1.02 102.26, 0 100.87 M0 100.87 C0.23 61.38, 1.23 24.15, 0 4.65 M0 4.65 C0.5 3.25, 0.64 -1.72, 4.65 0" stroke="transparent" stroke-width="1.5" fill="none" stroke-dasharray="8 9"></path></g><g stroke-linecap="round"><g transform="translate(652.7491368054655 653.5638958564741) rotate(0 -1.0508329373965353 69.40088646010668)"><path d="M-0.18 0.37 C-0.26 23.8, -0.63 116.41, -0.97 139.58 M-1.74 -0.49 C-1.84 22.71, -1.11 114.89, -1.32 137.86" stroke="#40c057" stroke-width="4" fill="none"></path></g></g><mask></mask><g stroke-linecap="round" transform="translate(875.6331546895137 449.6920685488449) rotate(0 9.299931990307414 52.760090746391484)"><path d="M4.65 0 C8.93 -1.3, 11.03 -0.78, 13.95 0 C13.83 -2.79, 15.69 3.53, 18.6 4.65 C18.79 32.58, 13.92 58.07, 18.6 100.87 C15.55 102.33, 13.92 104.66, 13.95 105.52 C10.03 106.92, 5.37 106.14, 4.65 105.52 C2.08 106.51, -0.1 100.86, 0 100.87 C-2.23 77.2, -1.46 57.86, 0 4.65 C0.76 2.64, -1.74 0.15, 4.65 0" stroke="none" stroke-width="0" fill="#40c057"></path><path d="M4.65 0 C6.38 0.49, 9.64 -0.84, 13.95 0 M13.95 0 C18.29 -1.78, 19.23 0.19, 18.6 4.65 M18.6 4.65 C18.74 32.89, 19.5 60.03, 18.6 100.87 M18.6 100.87 C19.61 103.31, 17.42 107.46, 13.95 105.52 M13.95 105.52 C10.34 106.31, 7.68 105.03, 4.65 105.52 M4.65 105.52 C1.33 106.09, 1.33 103.26, 0 100.87 M0 100.87 C0.44 64.21, -1.43 29.28, 0 4.65 M0 4.65 C0.2 1.9, 2.21 0.21, 4.65 0" stroke="transparent" stroke-width="1.5" fill="none" stroke-dasharray="8 9"></path></g><g stroke-linecap="round"><g transform="translate(885.0636709363828 473.17028787540085) rotate(0 -1.0508329373965353 69.40088646010668)"><path d="M-0.93 0.32 C-1.36 23.32, -1.32 115.68, -1.49 138.68 M0.79 -0.55 C0.15 22.57, -1.55 116.84, -2.12 140.16" stroke="#40c057" stroke-width="4" fill="none"></path></g></g><mask></mask><g stroke-linecap="round" transform="translate(842.0899360631568 554.0114053193124) rotate(0 9.299931990307414 32.959018142059676)"><path d="M4.65 0 C7.99 1.54, 12.01 1.24, 13.95 0 C17.05 1.18, 18.27 1.51, 18.6 4.65 C21.08 25.67, 19.3 43.61, 18.6 61.27 C20.5 67.46, 14.23 63.16, 13.95 65.92 C12.53 65.58, 10.07 64.25, 4.65 65.92 C2.45 64.12, 1.11 64.88, 0 61.27 C0.58 47.16, -0.4 37.97, 0 4.65 C1.12 1.89, 2.32 -0.48, 4.65 0" stroke="none" stroke-width="0" fill="#40c057"></path><path d="M4.65 0 C7.84 0.4, 11.03 0.56, 13.95 0 M13.95 0 C18.84 0.09, 20.1 3.53, 18.6 4.65 M18.6 4.65 C18.11 26.64, 19.19 48.98, 18.6 61.27 M18.6 61.27 C17.36 62.9, 18.29 64.98, 13.95 65.92 M13.95 65.92 C11.55 66.07, 7.95 65.85, 4.65 65.92 M4.65 65.92 C1.11 67.1, -0.58 64.88, 0 61.27 M0 61.27 C-1.04 43.38, 1.19 26.59, 0 4.65 M0 4.65 C-1.46 2.52, 0.28 -0.85, 4.65 0" stroke="transparent" stroke-width="1.5" fill="none" stroke-dasharray="8 9"></path></g><g stroke-linecap="round"><g transform="translate(850.7570914045566 534.0363755446865) rotate(0 -0.7195505558072455 53.168049762226474)"><path d="M1.16 -0.93 C0.81 16.77, -1.88 88.3, -2.34 106.16 M0.31 1.2 C0.35 19.09, 0.36 89.89, -0.1 107.61" stroke="#40c057" stroke-width="4" fill="none"></path></g></g><mask></mask><g stroke-linecap="round" transform="translate(1479.4110899639393 475.65726122985143) rotate(0 9.299931990307414 32.959018142059676)"><path d="M4.65 0 C7.18 -1.66, 7.8 -0.01, 13.95 0 C14.14 -0.14, 17.74 1.3, 18.6 4.65 C16.24 20.5, 21.13 40.5, 18.6 61.27 C16.71 65.3, 14.52 67.27, 13.95 65.92 C11.21 65.96, 5.37 67.66, 4.65 65.92 C-1.55 67.79, 2.08 65.67, 0 61.27 C-0.19 44.15, -1.02 29.79, 0 4.65 C-2.07 4.49, 2.06 2.5, 4.65 0" stroke="none" stroke-width="0" fill="#40c057"></path><path d="M4.65 0 C7.62 -0.22, 9.9 -0.12, 13.95 0 M13.95 0 C18.36 1.08, 18.58 2.21, 18.6 4.65 M18.6 4.65 C17.7 22.47, 19.09 38.14, 18.6 61.27 M18.6 61.27 C19.45 63.66, 17.79 66.76, 13.95 65.92 M13.95 65.92 C10.98 65.22, 7.5 65.84, 4.65 65.92 M4.65 65.92 C2.89 65.91, -0.84 64.82, 0 61.27 M0 61.27 C0.75 43.23, 0.85 19.96, 0 4.65 M0 4.65 C1.36 0.74, 2.05 1.7, 4.65 0" stroke="transparent" stroke-width="1.5" fill="none" stroke-dasharray="8 9"></path></g><g stroke-linecap="round"><g transform="translate(1488.3047822666806 427.2792028554036) rotate(0 -0.7195505558072455 53.168049762226474)"><path d="M-0.43 0.7 C-0.68 18.38, -0.86 88.24, -1.18 105.73 M1.55 0.03 C1.14 17.89, -1.74 89.19, -1.99 106.95" stroke="#40c057" stroke-width="4" fill="none"></path></g></g><mask></mask><g stroke-linecap="round" transform="translate(1647.1271830957241 575.1134696265208) rotate(0 9.299931990307414 32.959018142059676)"><path d="M4.65 0 C6.37 0.51, 11.81 -1.34, 13.95 0 C16.51 -1.54, 15.38 -1.24, 18.6 4.65 C15.94 17.42, 20.9 29.59, 18.6 61.27 C15.47 62.16, 14 64.28, 13.95 65.92 C10.87 66.95, 9.72 67.39, 4.65 65.92 C-1.19 67.07, 0.53 65.36, 0 61.27 C-0.71 41.46, -2.12 24.33, 0 4.65 C-2.23 -0.68, 2.31 1.09, 4.65 0" stroke="none" stroke-width="0" fill="#40c057"></path><path d="M4.65 0 C8.66 0.96, 10.73 0.62, 13.95 0 M13.95 0 C17.46 -1.6, 19.84 -0.23, 18.6 4.65 M18.6 4.65 C18.47 25.28, 18.23 42.63, 18.6 61.27 M18.6 61.27 C19.38 64.18, 18.06 65.26, 13.95 65.92 M13.95 65.92 C10.22 65.43, 7.82 66.83, 4.65 65.92 M4.65 65.92 C2.72 64.99, -0.22 64.93, 0 61.27 M0 61.27 C1 38.67, 1.03 19.29, 0 4.65 M0 4.65 C-1.04 2.35, 1.75 0.35, 4.65 0" stroke="transparent" stroke-width="1.5" fill="none" stroke-dasharray="8 9"></path></g><g stroke-linecap="round"><g transform="translate(1658.0620225958248 589.9652769869635) rotate(0 -0.7195505558072455 53.168049762226474)"><path d="M-0.34 -0.72 C-0.37 16.94, -0.36 88.34, -0.65 106.07 M1.69 1.52 C1.6 19.34, -0.37 89.96, -1.19 107.47" stroke="#40c057" stroke-width="4" fill="none"></path></g></g><mask></mask><g stroke-linecap="round" transform="translate(473.11453117323003 622.0602766366583) rotate(0 9.299931990307414 20.728943886442835)"><path d="M4.65 0 C6.04 0.23, 8.76 1.42, 13.95 0 C17.24 2.75, 18.6 2.73, 18.6 4.65 C20.88 13.35, 20.43 23.84, 18.6 36.81 C18.65 37.79, 18.95 44.55, 13.95 41.46 C10.29 40.73, 11.05 41.16, 4.65 41.46 C4.58 38.03, 0.9 38.11, 0 36.81 C-2.23 24.02, -0.11 13.06, 0 4.65 C-1.01 1.54, 2.67 0.34, 4.65 0" stroke="none" stroke-width="0" fill="#40c057"></path><path d="M4.65 0 C7.12 -0.69, 10.03 0.33, 13.95 0 M13.95 0 C18.63 1.06, 20.39 1.64, 18.6 4.65 M18.6 4.65 C19.19 17.92, 18.35 28.62, 18.6 36.81 M18.6 36.81 C19.11 39.92, 15.81 39.99, 13.95 41.46 M13.95 41.46 C10.81 41.52, 7.83 41.63, 4.65 41.46 M4.65 41.46 C1.61 41.29, -0.44 41.09, 0 36.81 M0 36.81 C1.07 28.65, -0.8 19.47, 0 4.65 M0 4.65 C1.52 2.8, 0.09 0.97, 4.65 0" stroke="transparent" stroke-width="1.5" fill="none" stroke-dasharray="8 9"></path></g><g stroke-linecap="round"><g transform="translate(482.17611125591816 606.1366209109833) rotate(0 -0.3882681742177283 38.92290735388269)"><path d="M0.3 0.83 C0.16 13.96, -1.06 65.85, -1.43 78.65 M-1 0.22 C-0.7 13.02, 0.71 63.84, 0.94 76.94" stroke="#40c057" stroke-width="4" fill="none"></path></g></g><mask></mask><g stroke-linecap="round" transform="translate(741.4602801840858 678.7342832049444) rotate(0 9.299931990307414 20.728943886442835)"><path d="M4.65 0 C6.23 0.21, 10.86 -1.57, 13.95 0 C13.64 0, 15.69 1.41, 18.6 4.65 C18.02 15.61, 16.35 19.86, 18.6 36.81 C21.28 38.97, 15.16 42.39, 13.95 41.46 C13.46 42.87, 10.56 41.52, 4.65 41.46 C-1.32 44.94, -3.1 41.78, 0 36.81 C0.12 27.67, -0.3 14.06, 0 4.65 C-0.92 4.81, -0.52 2.94, 4.65 0" stroke="none" stroke-width="0" fill="#40c057"></path><path d="M4.65 0 C7.02 -0.02, 11.17 -0.18, 13.95 0 M13.95 0 C18.38 -0.28, 19.91 2.63, 18.6 4.65 M18.6 4.65 C20.28 15.74, 17.36 24.12, 18.6 36.81 M18.6 36.81 C18.64 38.23, 17.9 40.75, 13.95 41.46 M13.95 41.46 C10.42 42.04, 8.24 40.79, 4.65 41.46 M4.65 41.46 C2.85 41.18, 1.34 39.9, 0 36.81 M0 36.81 C-1.79 30.39, 0.2 22.05, 0 4.65 M0 4.65 C0.36 0.02, 2.91 -0.81, 4.65 0" stroke="transparent" stroke-width="1.5" fill="none" stroke-dasharray="8 9"></path></g><g stroke-linecap="round"><g transform="translate(750.8067358134979 638.1997012179681) rotate(0 -0.3882681742177283 38.92290735388269)"><path d="M-0.85 -0.07 C-1.05 12.83, -1.34 65.12, -1.48 77.92 M0.9 -1.15 C1.12 11.91, 0.89 66.39, 0.87 79.49" stroke="#40c057" stroke-width="4" fill="none"></path></g></g><mask></mask><g stroke-linecap="round" transform="translate(674.3738429313719 659.7004204799291) rotate(0 9.299931990307414 20.728943886442835)"><path d="M4.65 0 C7.71 0.89, 9.04 0.55, 13.95 0 C19.12 -2.67, 18.06 0.01, 18.6 4.65 C20.13 11.02, 14.93 18.55, 18.6 36.81 C20.34 40.03, 13.92 39.25, 13.95 41.46 C11.55 42.87, 8.84 42.19, 4.65 41.46 C0.97 44.28, -2.74 41.06, 0 36.81 C-3.27 23.51, -1.75 13.58, 0 4.65 C-3 -1.73, -0.68 -2.23, 4.65 0" stroke="none" stroke-width="0" fill="#40c057"></path><path d="M4.65 0 C7.54 -0.45, 11.7 0.86, 13.95 0 M13.95 0 C15.62 1.26, 19.01 -0.05, 18.6 4.65 M18.6 4.65 C16.95 16.07, 18.57 29.8, 18.6 36.81 M18.6 36.81 C18.61 40.36, 17.83 41.27, 13.95 41.46 M13.95 41.46 C11.59 42.09, 6.66 40.92, 4.65 41.46 M4.65 41.46 C1.11 43.28, 1.17 38.98, 0 36.81 M0 36.81 C-0.8 29.04, 0.71 16.39, 0 4.65 M0 4.65 C0.83 1.08, 0.51 0.8, 4.65 0" stroke="transparent" stroke-width="1.5" fill="none" stroke-dasharray="8 9"></path></g><g stroke-linecap="round"><g transform="translate(682.6638529566637 667.2457701894) rotate(0 -0.3882681742177283 38.92290735388269)"><path d="M-0.46 -0.84 C-0.31 11.91, 0.33 64.5, 0.27 77.65 M1.5 1.33 C1.64 14.79, 0.39 66.06, -0.13 79.08" stroke="#40c057" stroke-width="4" fill="none"></path></g></g><mask></mask><g stroke-linecap="round" transform="translate(1412.3246527112253 436.0586914556652) rotate(0 9.299931990307414 10.828407584276988)"><path d="M4.65 0 C6.04 1.63, 8.06 0.49, 13.95 0 C16.42 3.38, 18.79 4.3, 18.6 4.65 C18.65 9.75, 20.09 11.66, 18.6 17.01 C20.43 20.59, 17.1 19.54, 13.95 21.66 C9.39 21.26, 5.79 20.83, 4.65 21.66 C4.17 21.07, 3.03 16.68, 0 17.01 C0.43 10.89, -1.22 7.65, 0 4.65 C-0.03 -0.92, 0.54 -0.01, 4.65 0" stroke="none" stroke-width="0" fill="#40c057"></path><path d="M4.65 0 C7.92 0.06, 11.41 -0.66, 13.95 0 M13.95 0 C17.83 0.71, 20.18 2.61, 18.6 4.65 M18.6 4.65 C19.83 10.59, 18.77 15.02, 18.6 17.01 M18.6 17.01 C18.03 19.94, 17.56 21.67, 13.95 21.66 M13.95 21.66 C11.3 21.94, 9.75 21.75, 4.65 21.66 M4.65 21.66 C2.88 21.98, 0.06 19.94, 0 17.01 M0 17.01 C0.24 13.79, 0.64 10.48, 0 4.65 M0 4.65 C-0.71 1.63, 3.07 1.25, 4.65 0" stroke="transparent" stroke-width="1.5" fill="none" stroke-dasharray="8 9"></path></g><g stroke-linecap="round"><g transform="translate(1421.5495411334152 422.57646538277913) rotate(0 -1.7133977005753422 26.99674161666462)"><path d="M0.03 -0.81 C-0.35 8.2, -1.87 45.77, -2.26 54.85 M-1.41 1.37 C-1.85 9.99, -2.41 44.27, -2.59 53.17" stroke="#40c057" stroke-width="4" fill="none"></path></g></g><mask></mask><g stroke-linecap="round" transform="translate(808.5467174367998 616.1076405533595) rotate(0 9.299931990307414 10.828407584276988)"><path d="M4.65 0 C9.49 -0.8, 10.05 0.09, 13.95 0 C17.4 -3.54, 15.19 1.55, 18.6 4.65 C18.44 7.91, 18.26 11.36, 18.6 17.01 C16.39 17.57, 19.73 20.72, 13.95 21.66 C12.28 23.04, 10.99 22.81, 4.65 21.66 C3.44 21.48, -2.87 23.59, 0 17.01 C0.69 14.51, 0.09 13.18, 0 4.65 C-0.09 1.81, 0.63 3.26, 4.65 0" stroke="none" stroke-width="0" fill="#40c057"></path><path d="M4.65 0 C6.06 -0.49, 8.58 -0.08, 13.95 0 M13.95 0 C18.46 -0.49, 19.93 1.27, 18.6 4.65 M18.6 4.65 C19.07 9.3, 19.64 14.59, 18.6 17.01 M18.6 17.01 C17.25 20.34, 17.09 19.97, 13.95 21.66 M13.95 21.66 C11.16 22.43, 7.18 22.2, 4.65 21.66 M4.65 21.66 C2.75 20.05, 1.3 19.83, 0 17.01 M0 17.01 C0.28 13.11, -1.06 9.11, 0 4.65 M0 4.65 C0.27 3.4, 1.91 -1.53, 4.65 0" stroke="transparent" stroke-width="1.5" fill="none" stroke-dasharray="8 9"></path></g><g stroke-linecap="round"><g transform="translate(820.2203519700263 567.280211954539) rotate(0 -1.0508329373965353 34.61623639322056)"><path d="M0.52 -0.96 C0.04 10.44, -1.53 57.64, -2.16 69.4 M-0.66 1.15 C-1.37 13.29, -3.09 59.98, -3.14 71.02" stroke="#40c057" stroke-width="4" fill="none"></path></g></g><mask></mask><g stroke-linecap="round" transform="translate(573.744187052301 741.172727598434) rotate(0 9.299931990307414 10.828407584276988)"><path d="M4.65 0 C7.25 0.54, 9.43 0.93, 13.95 0 C14.08 1.31, 20.67 -1.12, 18.6 4.65 C16.78 6.37, 19.73 11.45, 18.6 17.01 C15.38 20.47, 18.79 21.78, 13.95 21.66 C11.21 20.06, 9.59 23.07, 4.65 21.66 C-0.82 23.53, -0.58 22.93, 0 17.01 C0.54 14.18, -1.99 9.51, 0 4.65 C-1.59 -1.43, -1.45 -3.28, 4.65 0" stroke="none" stroke-width="0" fill="#40c057"></path><path d="M4.65 0 C7.78 0.54, 11.12 -0.43, 13.95 0 M13.95 0 C18.42 1.97, 17.17 2.81, 18.6 4.65 M18.6 4.65 C17.4 9, 17.66 12.44, 18.6 17.01 M18.6 17.01 C18.86 21.97, 17.06 22.11, 13.95 21.66 M13.95 21.66 C10.49 21.88, 8.55 22.32, 4.65 21.66 M4.65 21.66 C-0.1 20.47, -0.44 21.93, 0 17.01 M0 17.01 C0.41 13.4, -0.38 9.09, 0 4.65 M0 4.65 C0.8 -0.29, 2.38 -0.47, 4.65 0" stroke="transparent" stroke-width="1.5" fill="none" stroke-dasharray="8 9"></path></g><g stroke-linecap="round"><g transform="translate(584.4340030755632 741.4732666691953) rotate(0 -1.0508329373965353 34.61623639322056)"><path d="M-0.25 0.32 C-0.59 11.86, -1.73 56.81, -1.91 68.13 M1.82 -0.55 C1.32 11.19, -2.17 57.49, -2.76 69.08" stroke="#40c057" stroke-width="4" fill="none"></path></g></g><mask></mask><g stroke-linecap="round" transform="translate(1076.8924664476556 357.3331346560162) rotate(0 9.299931990307414 70.52281764145391)"><path d="M4.65 0 C7.02 1.32, 13.45 -1.35, 13.95 0 C19.85 -2.51, 18.27 2.21, 18.6 4.65 C21.13 56.19, 19.37 106.91, 18.6 136.4 C19.67 137.84, 16.99 142.36, 13.95 141.05 C10.22 140.65, 7.14 141.87, 4.65 141.05 C-0.47 137.66, 0.98 142.19, 0 136.4 C-0.29 88.41, 3.38 39.77, 0 4.65 C-0.01 3.62, 3.63 3.34, 4.65 0" stroke="none" stroke-width="0" fill="#e8590c"></path><path d="M4.65 0 C7.59 -0.57, 9.79 0.79, 13.95 0 M13.95 0 C16.85 0.35, 17.96 3.07, 18.6 4.65 M18.6 4.65 C16.72 38.1, 19.3 67.95, 18.6 136.4 M18.6 136.4 C17.58 139.46, 15.44 140.52, 13.95 141.05 M13.95 141.05 C10.06 140.07, 6.72 140.24, 4.65 141.05 M4.65 141.05 C0.79 142.9, 1.14 138.01, 0 136.4 M0 136.4 C1.68 94.96, -0.61 58.17, 0 4.65 M0 4.65 C-0.14 1.95, 3.3 -1.09, 4.65 0" stroke="transparent" stroke-width="1.5" fill="none" stroke-dasharray="8 9"></path></g><g stroke-linecap="round"><g transform="translate(1086.8524923908546 306.6386400937563) rotate(0 -0.3882681742179557 84.63987601321867)"><path d="M-0.83 0.14 C-0.93 28.27, -1.05 140.15, -1.17 168.53 M0.94 -0.83 C0.69 27.45, -2.32 141.42, -2.33 169.67" stroke="#e8590c" stroke-width="4" fill="none"></path></g></g><mask></mask><g stroke-linecap="round" transform="translate(1546.4975272166532 411.03800284171484) rotate(0 9.299931990307414 70.52281764145391)"><path d="M4.65 0 C7.48 -1.25, 10.21 -0.04, 13.95 0 C18.32 -2.15, 16.28 3, 18.6 4.65 C21.15 34.76, 20.58 71.63, 18.6 136.4 C19.08 136.57, 17.05 144.4, 13.95 141.05 C9.63 141.66, 5.8 141.62, 4.65 141.05 C-1.38 137.54, 1.87 137.7, 0 136.4 C1.34 90.7, -1.13 51.08, 0 4.65 C-2.77 2.58, -1.76 -3.31, 4.65 0" stroke="none" stroke-width="0" fill="#e8590c"></path><path d="M4.65 0 C7.1 -0.28, 9.16 0.41, 13.95 0 M13.95 0 C16.99 -1.25, 17.2 1.11, 18.6 4.65 M18.6 4.65 C19.18 41.9, 18.04 79.75, 18.6 136.4 M18.6 136.4 C17.67 140.97, 17.86 141.32, 13.95 141.05 M13.95 141.05 C12.44 141.1, 10.75 140.73, 4.65 141.05 M4.65 141.05 C2.15 141.41, 0.95 138.48, 0 136.4 M0 136.4 C-0.13 106.28, -0.57 80, 0 4.65 M0 4.65 C-0.42 0.04, 0.76 1.15, 4.65 0" stroke="transparent" stroke-width="1.5" fill="none" stroke-dasharray="8 9"></path></g><g stroke-linecap="round"><g transform="translate(1556.0339202331072 431.66253251885564) rotate(0 -0.3882681742179557 84.63987601321867)"><path d="M0.5 0.55 C0.56 28.74, 0.42 141.58, 0.27 169.8 M-0.7 -0.21 C-0.7 27.57, -0.09 139.94, -0.14 167.95" stroke="#e8590c" stroke-width="4" fill="none"></path></g></g><mask></mask><g stroke-linecap="round" transform="translate(1177.5221223267265 288.35076063244605) rotate(0 9.299931990307414 52.760090746391484)"><path d="M4.65 0 C7.22 0.2, 10.45 -0.66, 13.95 0 C15.51 -2.75, 15.68 -1.58, 18.6 4.65 C17.55 24.07, 23.4 51.81, 18.6 100.87 C15.58 106.11, 16.34 107.21, 13.95 105.52 C9.76 105.22, 9.43 106.68, 4.65 105.52 C0.35 102.36, 2.36 105.07, 0 100.87 C1.07 62.12, 1.1 26.39, 0 4.65 C-2.28 4.85, -0.04 -3.37, 4.65 0" stroke="none" stroke-width="0" fill="#e8590c"></path><path d="M4.65 0 C7.75 -0.54, 9.65 -0.64, 13.95 0 M13.95 0 C18.78 1.89, 20.42 1.46, 18.6 4.65 M18.6 4.65 C17.1 34.46, 19.76 60.84, 18.6 100.87 M18.6 100.87 C19.85 105.15, 18.09 106.29, 13.95 105.52 M13.95 105.52 C12.11 106.13, 9.1 105.82, 4.65 105.52 M4.65 105.52 C-0.3 104.02, -0.19 102.41, 0 100.87 M0 100.87 C-1.89 82.55, 1.38 61.71, 0 4.65 M0 4.65 C0.87 -0.01, 3.23 1.92, 4.65 0" stroke="transparent" stroke-width="1.5" fill="none" stroke-dasharray="8 9"></path></g><g stroke-linecap="round"><g transform="translate(1186.2220872156051 267.5655088630656) rotate(0 0.2742965889608513 72.3824278944112)"><path d="M0.97 0.74 C1.07 24.86, -0.38 119.6, -0.36 143.7 M0.02 0.09 C0.57 24.41, 1.77 120.8, 1.88 144.67" stroke="#e8590c" stroke-width="4" fill="none"></path></g></g><mask></mask><g stroke-linecap="round" transform="translate(1278.1517782057974 313.159436898447) rotate(0 9.299931990307414 52.760090746391484)"><path d="M4.65 0 C7.84 -0.16, 10.62 1.17, 13.95 0 C20.45 -2.91, 21.4 -0.96, 18.6 4.65 C21.37 31.49, 19.83 61.41, 18.6 100.87 C17.75 104.75, 18.12 103.86, 13.95 105.52 C10.11 104.61, 8.2 105.36, 4.65 105.52 C2.09 107.52, -2.02 100.58, 0 100.87 C-2.17 69.4, -2.16 37.39, 0 4.65 C2.8 -0.16, 1.54 2.07, 4.65 0" stroke="none" stroke-width="0" fill="#e8590c"></path><path d="M4.65 0 C7.51 -0.35, 12.46 -0.57, 13.95 0 M13.95 0 C17.76 1.62, 18.4 1.9, 18.6 4.65 M18.6 4.65 C18.9 30.89, 17.73 58, 18.6 100.87 M18.6 100.87 C19.58 103.85, 16.03 105.48, 13.95 105.52 M13.95 105.52 C12.21 105.01, 9.31 104.65, 4.65 105.52 M4.65 105.52 C0.32 103.9, -0.76 105.82, 0 100.87 M0 100.87 C0.83 64.9, 2.47 30.31, 0 4.65 M0 4.65 C-0.53 2.43, 1.41 0.4, 4.65 0" stroke="transparent" stroke-width="1.5" fill="none" stroke-dasharray="8 9"></path></g><g stroke-linecap="round"><g transform="translate(1288.1684625511373 263.59683561778) rotate(0 0.2742965889608513 72.3824278944112)"><path d="M0.27 -1.02 C0.39 23.02, 0.15 119.34, 0.04 143.68 M-1.05 1.05 C-1.07 25.26, -1.68 120.41, -1.18 144.64" stroke="#e8590c" stroke-width="4" fill="none"></path></g></g><mask></mask><g stroke-linecap="round" transform="translate(540.200968425944 658.6069147184703) rotate(0 9.299931990307414 52.760090746391484)"><path d="M4.65 0 C7.99 1.34, 8.78 -1.24, 13.95 0 C13.72 0.23, 19.87 -0.6, 18.6 4.65 C22.79 29.17, 19.55 47.08, 18.6 100.87 C18.28 104.94, 17.53 102.59, 13.95 105.52 C12.56 107.15, 7.37 106.07, 4.65 105.52 C-1.69 106.43, -2.93 100.46, 0 100.87 C-0.85 64.25, 1.07 31.85, 0 4.65 C-2.26 5.08, -1.22 1.03, 4.65 0" stroke="none" stroke-width="0" fill="#e8590c"></path><path d="M4.65 0 C7.1 0.32, 10.11 -0.24, 13.95 0 M13.95 0 C15.36 0.95, 18.54 0.3, 18.6 4.65 M18.6 4.65 C17.96 28.05, 19.25 48.96, 18.6 100.87 M18.6 100.87 C18.32 104.59, 16.12 106.99, 13.95 105.52 M13.95 105.52 C10.64 105.55, 8.07 105.47, 4.65 105.52 M4.65 105.52 C3.06 104.82, 0.61 104.33, 0 100.87 M0 100.87 C0.98 66.66, 0.68 32.43, 0 4.65 M0 4.65 C-0.25 2.33, 1.13 -1.51, 4.65 0" stroke="transparent" stroke-width="1.5" fill="none" stroke-dasharray="8 9"></path></g><g stroke-linecap="round"><g transform="translate(549.7514263217729 674.9710604212787) rotate(0 0.2742965889608513 72.3824278944112)"><path d="M-0.07 -0.54 C-0.28 23.56, -0.34 120.32, -0.11 144.39 M-1.56 1.79 C-1.48 26.09, 1.83 121.91, 2.25 145.72" stroke="#e8590c" stroke-width="4" fill="none"></path></g></g><mask></mask><g stroke-linecap="round" transform="translate(1211.0653409530835 386.9782519598357) rotate(0 9.299931990307414 32.959018142059676)"><path d="M4.65 0 C9.73 1.17, 10.68 0.17, 13.95 0 C13.7 -1.14, 17.06 -1.2, 18.6 4.65 C20.38 19.32, 15.38 26.48, 18.6 61.27 C22.12 66.75, 14.03 68.06, 13.95 65.92 C11.29 67.03, 7.3 65.5, 4.65 65.92 C3.68 68.17, -1.2 61.21, 0 61.27 C-2.96 37.93, -0.52 19.15, 0 4.65 C-0.18 3.09, -0.73 3.3, 4.65 0" stroke="none" stroke-width="0" fill="#e8590c"></path><path d="M4.65 0 C6.98 0.08, 9.17 -0.49, 13.95 0 M13.95 0 C17.74 -1.36, 20.33 3.44, 18.6 4.65 M18.6 4.65 C17 27.95, 17.83 50.31, 18.6 61.27 M18.6 61.27 C20.52 63.71, 18.3 67.1, 13.95 65.92 M13.95 65.92 C10.73 65.72, 8.19 66.53, 4.65 65.92 M4.65 65.92 C2.39 66.59, -1.85 62.87, 0 61.27 M0 61.27 C0.85 44.12, -1.25 29.34, 0 4.65 M0 4.65 C1.58 0.91, 2.42 -1.56, 4.65 0" stroke="transparent" stroke-width="1.5" fill="none" stroke-dasharray="8 9"></path></g><g stroke-linecap="round"><g transform="translate(1220.6762668581962 368.2398730989653) rotate(0 -0.0569857926284385 51.18035547269017)"><path d="M-0.44 -0.02 C-0.47 17.15, -0.33 85.15, -0.15 102.32 M1.54 -1.07 C1.33 16.35, -0.91 86.83, -1.12 103.84" stroke="#e8590c" stroke-width="4" fill="none"></path></g></g><mask></mask><g stroke-linecap="round" transform="translate(1580.0407458430102 551.5373431638604) rotate(0 9.299931990307414 32.959018142059676)"><path d="M4.65 0 C6.47 1.33, 9.69 -0.16, 13.95 0 C14.38 2.83, 22 -1.36, 18.6 4.65 C18.55 29.11, 20.35 46.29, 18.6 61.27 C19.52 65.17, 16.2 66.7, 13.95 65.92 C11.49 67.25, 6.75 64.87, 4.65 65.92 C1.13 65.3, 0.54 66.37, 0 61.27 C3.65 49.63, 0.08 33.67, 0 4.65 C-0.86 1.02, 4.35 -1.71, 4.65 0" stroke="none" stroke-width="0" fill="#e8590c"></path><path d="M4.65 0 C6.83 -0.47, 9.02 -0.47, 13.95 0 M13.95 0 C18.21 -1.31, 19.31 3.17, 18.6 4.65 M18.6 4.65 C20.22 19.89, 18.27 37.94, 18.6 61.27 M18.6 61.27 C17 66.11, 18.03 65.8, 13.95 65.92 M13.95 65.92 C11.39 66.38, 9.62 65.28, 4.65 65.92 M4.65 65.92 C0.35 63.94, -1.23 62.75, 0 61.27 M0 61.27 C-2.01 46.45, -0.41 29.98, 0 4.65 M0 4.65 C1.76 -0.33, 1.02 0.88, 4.65 0" stroke="transparent" stroke-width="1.5" fill="none" stroke-dasharray="8 9"></path></g><g stroke-linecap="round"><g transform="translate(1589.266683777147 504.2626858585354) rotate(0 -0.0569857926284385 51.18035547269017)"><path d="M-0.67 -1.04 C-0.68 16.19, -0.06 85.95, 0.23 103.1 M1.18 1.03 C1.01 17.94, -0.49 84.38, -0.53 101.37" stroke="#e8590c" stroke-width="4" fill="none"></path></g></g><mask></mask><g stroke-linecap="round" transform="translate(707.9170615577289 656.8065033184612) rotate(0 9.299931990307414 32.959018142059676)"><path d="M4.65 0 C8.21 1.45, 10.76 1.55, 13.95 0 C15.5 -2.37, 15.27 1.78, 18.6 4.65 C19.44 21.86, 21.49 44.48, 18.6 61.27 C18.85 61.47, 16.73 66.89, 13.95 65.92 C12.59 66.88, 9.52 67.45, 4.65 65.92 C-0.6 66.9, -3.24 65.28, 0 61.27 C-0.81 50.23, -0.72 33.76, 0 4.65 C0.21 0.27, -0.71 3.53, 4.65 0" stroke="none" stroke-width="0" fill="#e8590c"></path><path d="M4.65 0 C8.27 -0.15, 11.06 0.3, 13.95 0 M13.95 0 C16.63 -0.54, 16.91 2.5, 18.6 4.65 M18.6 4.65 C17.81 21.11, 17.82 39.51, 18.6 61.27 M18.6 61.27 C19.46 64.38, 16.77 66.54, 13.95 65.92 M13.95 65.92 C11.72 65.12, 9.09 66.07, 4.65 65.92 M4.65 65.92 C2.51 66, 1.51 63.66, 0 61.27 M0 61.27 C-1.11 40.91, 0.39 23.11, 0 4.65 M0 4.65 C0.19 0.02, 1.3 0.78, 4.65 0" stroke="transparent" stroke-width="1.5" fill="none" stroke-dasharray="8 9"></path></g><g stroke-linecap="round"><g transform="translate(717.7548322752093 664.0681294648211) rotate(0 -0.0569857926284385 51.18035547269017)"><path d="M0.21 0.37 C0.09 17.3, 0.12 84.79, 0.19 101.8 M-1.13 -0.48 C-1.47 16.59, -0.82 85.67, -0.6 103.04" stroke="#e8590c" stroke-width="4" fill="none"></path></g></g><mask></mask><g stroke-linecap="round" transform="translate(1680.6704017220811 571.0442647840523) rotate(0 9.299931990307414 20.728943886442835)"><path d="M4.65 0 C9.45 1.46, 12.55 1.19, 13.95 0 C14.67 0.71, 15.25 0.41, 18.6 4.65 C15.02 10.5, 20.82 23.46, 18.6 36.81 C16.27 36.94, 20.57 43.84, 13.95 41.46 C12.73 41.36, 9.88 42.55, 4.65 41.46 C-1.54 40.56, 2.13 42.16, 0 36.81 C1.6 31.65, -2.15 17, 0 4.65 C-0.21 0.81, 1.37 1.54, 4.65 0" stroke="none" stroke-width="0" fill="#e8590c"></path><path d="M4.65 0 C7.25 -0.36, 10.08 0.13, 13.95 0 M13.95 0 C18.68 -1.15, 19.29 0.19, 18.6 4.65 M18.6 4.65 C18.81 16.98, 17.33 30.66, 18.6 36.81 M18.6 36.81 C17.86 41.29, 18.97 40.8, 13.95 41.46 M13.95 41.46 C10.94 41.34, 7.26 41.33, 4.65 41.46 M4.65 41.46 C3.24 42.81, 0.84 40.58, 0 36.81 M0 36.81 C-1.32 28.15, 0.65 22.76, 0 4.65 M0 4.65 C-1.69 2.49, 3.13 -0.64, 4.65 0" stroke="transparent" stroke-width="1.5" fill="none" stroke-dasharray="8 9"></path></g><g stroke-linecap="round"><g transform="translate(1690.4653375087776 555.379887822749) rotate(0 -0.0569857926284385 37.59777782752508)"><path d="M0.86 0.03 C0.96 12.57, 0.44 62.65, 0.26 75.01 M-0.15 -1 C-0.15 11.75, -0.34 63.78, -0.49 76.46" stroke="#e8590c" stroke-width="4" fill="none"></path></g></g><mask></mask><g stroke-linecap="round" transform="translate(1378.7814340848684 414.5299003790592) rotate(0 9.299931990307414 20.728943886442835)"><path d="M4.65 0 C7.53 1.47, 8.83 1.48, 13.95 0 C16.17 -0.03, 15.93 4.38, 18.6 4.65 C15.62 17, 18.79 33.09, 18.6 36.81 C21.06 38.77, 17.97 42.26, 13.95 41.46 C10.61 41.48, 9.42 42.84, 4.65 41.46 C-0.75 39.2, -0.42 39.29, 0 36.81 C-3.71 27.66, 2.37 18.72, 0 4.65 C-0.87 1.56, 0.69 -0.53, 4.65 0" stroke="none" stroke-width="0" fill="#e8590c"></path><path d="M4.65 0 C7.6 0.87, 10.24 -0.36, 13.95 0 M13.95 0 C15.39 -0.84, 19.76 0.24, 18.6 4.65 M18.6 4.65 C19.21 14.81, 20.38 25.05, 18.6 36.81 M18.6 36.81 C18.17 40.34, 15.45 43.2, 13.95 41.46 M13.95 41.46 C10.69 40.66, 7.21 41.95, 4.65 41.46 M4.65 41.46 C2.19 40.25, -1.2 37.93, 0 36.81 M0 36.81 C2.11 30.28, -1.23 21.48, 0 4.65 M0 4.65 C0.12 -0.08, 3.31 -1.88, 4.65 0" stroke="transparent" stroke-width="1.5" fill="none" stroke-dasharray="8 9"></path></g><g stroke-linecap="round"><g transform="translate(1387.9868614648988 377.99100602462386) rotate(0 -0.0569857926284385 37.59777782752508)"><path d="M-0.58 0.27 C-0.63 12.48, -0.32 61.73, -0.32 74.03 M1.32 -0.63 C1.09 11.61, -0.89 62.39, -1.37 74.96" stroke="#e8590c" stroke-width="4" fill="none"></path></g></g><mask></mask><g stroke-linecap="round" transform="translate(506.657749799587 622.043561895648) rotate(0 9.299931990307414 20.728943886442835)"><path d="M4.65 0 C6.07 -0.62, 10.96 1.41, 13.95 0 C19.02 3.18, 17.05 -0.82, 18.6 4.65 C16.49 9, 20.09 16.21, 18.6 36.81 C22.09 41.76, 17.3 38.56, 13.95 41.46 C9.88 41.48, 10.09 42.44, 4.65 41.46 C4.57 44.76, -2.15 40.89, 0 36.81 C-3.66 31.93, -1.95 24.64, 0 4.65 C-1.72 -1.2, 1.76 -1.28, 4.65 0" stroke="none" stroke-width="0" fill="#e8590c"></path><path d="M4.65 0 C7.29 -0.02, 9.02 -0.2, 13.95 0 M13.95 0 C16.23 0.66, 18.18 1.01, 18.6 4.65 M18.6 4.65 C17.51 10.18, 18.31 18.16, 18.6 36.81 M18.6 36.81 C18.17 41.16, 17.91 41.47, 13.95 41.46 M13.95 41.46 C11.97 41.79, 8.76 40.58, 4.65 41.46 M4.65 41.46 C1.24 41.71, 0.96 39.99, 0 36.81 M0 36.81 C0.48 25.69, -0.9 11, 0 4.65 M0 4.65 C0.5 0.79, 1.74 -1.53, 4.65 0" stroke="transparent" stroke-width="1.5" fill="none" stroke-dasharray="8 9"></path></g><g stroke-linecap="round"><g transform="translate(515.9879742218202 629.5636743318473) rotate(0 -0.0569857926284385 37.59777782752508)"><path d="M-1.15 0.56 C-1.3 13.18, -0.24 62.33, -0.23 74.92 M0.44 -0.19 C0.07 12.67, -1.39 63.92, -1.23 76.31" stroke="#e8590c" stroke-width="4" fill="none"></path></g></g><mask></mask><g stroke-linecap="round" transform="translate(1613.5839644693672 620.2112776063223) rotate(0 9.299931990307414 10.828407584276988)"><path d="M4.65 0 C6.87 1.33, 13.3 1.53, 13.95 0 C20.29 2.85, 16.22 2.26, 18.6 4.65 C16.83 5.41, 16.59 8.27, 18.6 17.01 C21.26 22.37, 14.72 18.69, 13.95 21.66 C11.25 21.19, 7.34 21.45, 4.65 21.66 C1.44 24.07, -3.09 19.21, 0 17.01 C-2.09 14.03, 0.54 10.25, 0 4.65 C-2.65 -1.1, 1.34 -0.74, 4.65 0" stroke="none" stroke-width="0" fill="#e8590c"></path><path d="M4.65 0 C8.01 -0.88, 9.91 -0.42, 13.95 0 M13.95 0 C18.02 0.08, 20.23 0.4, 18.6 4.65 M18.6 4.65 C19.68 9.91, 18.46 12.86, 18.6 17.01 M18.6 17.01 C17.02 21.27, 16.31 23.04, 13.95 21.66 M13.95 21.66 C10.81 22.2, 6.94 21.55, 4.65 21.66 M4.65 21.66 C1.66 21.27, 1.69 21.45, 0 17.01 M0 17.01 C-0.97 12.66, -1.01 7.32, 0 4.65 M0 4.65 C0.41 0.84, -0.14 0.94, 4.65 0" stroke="transparent" stroke-width="1.5" fill="none" stroke-dasharray="8 9"></path></g><g stroke-linecap="round"><g transform="translate(1621.7438051884294 605.9052282821558) rotate(0 -0.3882681742179557 25.0090473271282)"><path d="M1 -0.55 C0.8 7.82, 0.32 41.5, -0.09 49.85 M0.06 1.77 C-0.33 10.37, -0.84 43.17, -0.68 51.3" stroke="#e8590c" stroke-width="4" fill="none"></path></g></g><mask></mask><g stroke-linecap="round" transform="translate(942.7195919422277 470.6476374625463) rotate(0 9.299931990307414 10.828407584276988)"><path d="M4.65 0 C8.99 -0.07, 12.2 1.51, 13.95 0 C15.09 3.17, 17.72 1.52, 18.6 4.65 C16.98 9.17, 17.22 10.03, 18.6 17.01 C19.26 23.17, 19.51 20.52, 13.95 21.66 C11.29 22.12, 7.13 21.59, 4.65 21.66 C2.86 24.53, -2.3 17.85, 0 17.01 C1.28 12.19, -2.05 10.49, 0 4.65 C2.69 3.72, 0.68 0.01, 4.65 0" stroke="none" stroke-width="0" fill="#e8590c"></path><path d="M4.65 0 C7.71 -0.24, 8.99 0.82, 13.95 0 M13.95 0 C16.21 -0.83, 16.94 0.71, 18.6 4.65 M18.6 4.65 C19.52 8.95, 18.74 13.11, 18.6 17.01 M18.6 17.01 C20.12 18.92, 16.62 22.09, 13.95 21.66 M13.95 21.66 C11.85 21.23, 9.84 20.95, 4.65 21.66 M4.65 21.66 C1.03 22.81, 0.64 18.9, 0 17.01 M0 17.01 C-0.88 13.57, 1.27 11.78, 0 4.65 M0 4.65 C-1.49 1.55, 1.67 -1.63, 4.65 0" stroke="transparent" stroke-width="1.5" fill="none" stroke-dasharray="8 9"></path></g><g stroke-linecap="round"><g transform="translate(953.7460354986044 440.2570908858561) rotate(0 -0.3882681742179557 25.0090473271282)"><path d="M-1.15 -0.19 C-1.31 8.32, 0.19 41.86, 0.19 50.17 M0.45 -1.34 C0.11 7.48, 0.18 43.1, -0.24 51.79" stroke="#e8590c" stroke-width="4" fill="none"></path></g></g><mask></mask><g stroke-linecap="round" transform="translate(1747.756838974795 590.8572785954029) rotate(0 9.299931990307414 10.828407584276988)"><path d="M4.65 0 C8.18 -0.33, 9.15 -0.64, 13.95 0 C19.12 2.97, 20.57 4.73, 18.6 4.65 C18.59 8.61, 17.13 9.57, 18.6 17.01 C20.05 18.33, 20.54 23.51, 13.95 21.66 C11.55 21.87, 6.88 21.64, 4.65 21.66 C4.9 23.72, 3.02 23.41, 0 17.01 C0.5 12.23, -2.23 12.22, 0 4.65 C-1.8 2.89, -0.17 -2.75, 4.65 0" stroke="none" stroke-width="0" fill="#e8590c"></path><path d="M4.65 0 C8.22 0.68, 12.57 0.11, 13.95 0 M13.95 0 C17.54 -0.3, 17.78 2.21, 18.6 4.65 M18.6 4.65 C19.16 8.06, 17.8 10.68, 18.6 17.01 M18.6 17.01 C18.16 19.76, 16.62 22.91, 13.95 21.66 M13.95 21.66 C11.05 21.21, 8.25 22.02, 4.65 21.66 M4.65 21.66 C1.82 19.85, -0.31 20.36, 0 17.01 M0 17.01 C-0.44 13.08, 0.22 9, 0 4.65 M0 4.65 C-1.01 -0.11, 2.05 -0.76, 4.65 0" stroke="transparent" stroke-width="1.5" fill="none" stroke-dasharray="8 9"></path></g><g stroke-linecap="round"><g transform="translate(1757.4581530048138 595.5826644671888) rotate(0 -0.3882681742179557 25.0090473271282)"><path d="M-0.86 1.12 C-1.17 9.38, -1.71 40.81, -1.8 48.98 M0.89 0.66 C0.93 9.09, 0.93 41.5, 0.37 49.97" stroke="#e8590c" stroke-width="4" fill="none"></path></g></g><mask></mask></svg>