<svg version="1.1" xmlns="http://www.w3.org/2000/svg" viewBox="0 0 1588.5530838782215 847.2769489681468" width="1588.5530838782215" height="847.2769489681468">
  <!-- svg-source:excalidraw -->
  
  <defs>
    <style class="style-fonts">
      
    </style>
    
  </defs>
  <g stroke-linecap="round" transform="translate(10 10) rotate(0 784.2765419391108 413.6384744840734)"><path d="M0 0 C493.65 0.11, 988.27 -0.56, 1568.55 0 M0 0 C534.62 -0.76, 1070.16 -0.84, 1568.55 0 M1568.55 0 C1565.93 262.77, 1567.29 523.63, 1568.55 827.28 M1568.55 0 C1570.06 325.29, 1570.65 650.26, 1568.55 827.28 M1568.55 827.28 C947.59 823.08, 326.13 822.74, 0 827.28 M1568.55 827.28 C1170.72 825.31, 773.45 825.5, 0 827.28 M0 827.28 C1.89 558.96, 1.65 290.21, 0 0 M0 827.28 C2.78 517.37, 3.33 208.27, 0 0" stroke="transparent" stroke-width="2" fill="none"></path></g><g stroke-linecap="round" transform="translate(253.39864208490008 105.70672578192989) rotate(0 447.8778998542109 62.93174870214301)"><path d="M-0.55 0.36 L895.14 -1.27 L897.28 125.02 L0.34 126.2" stroke="none" stroke-width="0" fill="#c2255c20"></path><path d="M0 0 C298.06 -0.22, 596.41 -0.04, 895.76 0 M0 0 C226.17 0.43, 452.19 0, 895.76 0 M895.76 0 C897.48 32.96, 896.88 67.04, 895.76 125.86 M895.76 0 C897.33 28.96, 897.64 58.09, 895.76 125.86 M895.76 125.86 C610.22 125.49, 325.96 125.42, 0 125.86 M895.76 125.86 C569.34 129.37, 243.05 128.72, 0 125.86 M0 125.86 C-2.02 91.1, -1.74 54.44, 0 0 M0 125.86 C-0.71 95.3, -0.16 63.97, 0 0" stroke="transparent" stroke-width="2" fill="none"></path></g><g stroke-linecap="round" transform="translate(253.39864208490008 593.959303042258) rotate(0 447.8778998542109 73.55658939211537)"><path d="M0.99 1.37 L894.22 1.44 L896.21 145.28 L0.39 145.33" stroke="none" stroke-width="0" fill="#a5d8ff20"></path><path d="M0 0 C265.98 -0.43, 532.92 0.06, 895.76 0 M0 0 C225.07 -0.14, 450.25 -0.21, 895.76 0 M895.76 0 C897.86 48.17, 897.67 93.85, 895.76 147.11 M895.76 0 C895.64 31.27, 894.89 61.08, 895.76 147.11 M895.76 147.11 C645.98 151.24, 396.89 151.02, 0 147.11 M895.76 147.11 C667.57 147.8, 439.82 148.08, 0 147.11 M0 147.11 C-0.86 116.71, -0.07 84.15, 0 0 M0 147.11 C-0.59 114.51, -1.37 82.64, 0 0" stroke="transparent" stroke-width="2" fill="none"></path></g><g stroke-linecap="round" transform="translate(253.39864208490008 232.6034192007719) rotate(0 447.8778998542109 30.239931194536382)"><path d="M1.13 0.45 L896.36 1.18 L896.23 60.99 L1.22 59.57" stroke="none" stroke-width="0" fill="#f08c0020"></path><path d="M0 0 C298.31 1.03, 596.37 1, 895.76 0 M0 0 C330.7 0.38, 661.06 -0.22, 895.76 0 M895.76 0 C896.73 24.84, 896.23 48.06, 895.76 60.48 M895.76 0 C895.81 14.84, 895.25 27.98, 895.76 60.48 M895.76 60.48 C606.3 63.22, 315.62 62.73, 0 60.48 M895.76 60.48 C701.41 61.35, 507.34 61.19, 0 60.48 M0 60.48 C0.1 49.26, -0.71 35.4, 0 0 M0 60.48 C0.08 44.43, 0.48 29.71, 0 0" stroke="transparent" stroke-width="2" fill="none"></path></g><g stroke-linecap="round" transform="translate(253.39864208490008 471.37121626969565) rotate(0 447.8778998542109 60.47986238907231)"><path d="M1.68 -0.7 L897.59 -1.62 L895.95 120.59 L0.45 121.04" stroke="none" stroke-width="0" fill="#0c859920"></path><path d="M0 0 C198.5 3.73, 397.19 3.38, 895.76 0 M0 0 C320.02 0.56, 641.05 0.57, 895.76 0 M895.76 0 C895.68 29.78, 895.47 57.46, 895.76 120.96 M895.76 0 C895.16 32.83, 896.44 66.22, 895.76 120.96 M895.76 120.96 C571.37 118.44, 245.96 118.49, 0 120.96 M895.76 120.96 C704.38 121.16, 512.68 121.44, 0 120.96 M0 120.96 C0.06 95.43, 0.94 65.23, 0 0 M0 120.96 C0.22 76.31, 0.19 32.89, 0 0" stroke="transparent" stroke-width="2" fill="none"></path></g><g stroke-linecap="round" transform="translate(253.39864208490008 333.93559571242804) rotate(0 447.8778998542109 21.249681379944292)"><path d="M-0.37 0.45 L895.84 0.93 L895.17 43.55 L-0.45 42.12" stroke="none" stroke-width="0" fill="#b2f2bb20"></path><path d="M0 0 C261.28 -2.17, 521.31 -1.9, 895.76 0 M0 0 C345.52 1.99, 690.44 2.29, 895.76 0 M895.76 0 C895.62 8.95, 894.42 20.31, 895.76 42.5 M895.76 0 C896.07 14.82, 896.2 31.87, 895.76 42.5 M895.76 42.5 C618.78 39.53, 342.56 38.76, 0 42.5 M895.76 42.5 C579.39 39.76, 263.44 40.05, 0 42.5 M0 42.5 C0.34 29.74, 0.78 15.58, 0 0 M0 42.5 C-0.43 29.91, -0.89 15.59, 0 0" stroke="transparent" stroke-width="2" fill="none"></path></g><g stroke-linecap="round" transform="translate(253.39864208490008 294.1164776044002) rotate(0 447.8778998542109 20.432385942254143)"><path d="M1.05 -0.45 L895.38 0.33 L897.05 39.92 L-1.15 39.09" stroke="none" stroke-width="0" fill="#ffec9920"></path><path d="M0 0 C194.24 -3.54, 388.55 -3.36, 895.76 0 M0 0 C235.22 1.62, 470.7 1.36, 895.76 0 M895.76 0 C894.4 11.06, 896.62 17.95, 895.76 40.86 M895.76 0 C896.62 14.2, 895.85 30.26, 895.76 40.86 M895.76 40.86 C567.68 42.15, 239.22 42.77, 0 40.86 M895.76 40.86 C661.91 41.28, 428.73 41.06, 0 40.86 M0 40.86 C0.59 29.42, -0.48 16.45, 0 0 M0 40.86 C0.18 31.96, 0.42 22.67, 0 0" stroke="transparent" stroke-width="2" fill="none"></path></g><g stroke-linecap="round" transform="translate(253.39864208490008 379.54700427790885) rotate(0 447.8778998542109 44.13395363526914)"><path d="M-0.94 -1.15 L893.98 -0.35 L896.81 88.24 L-0.85 87.67" stroke="none" stroke-width="0" fill="#09926820"></path><path d="M0 0 C318.83 0.95, 636.82 1.14, 895.76 0 M0 0 C268.71 2.42, 537.66 2.4, 895.76 0 M895.76 0 C896.17 31.5, 896.29 60.92, 895.76 88.27 M895.76 0 C895.07 25.79, 895.78 49.76, 895.76 88.27 M895.76 88.27 C690.57 86.89, 483.52 87.38, 0 88.27 M895.76 88.27 C627.66 89.1, 360.05 89.36, 0 88.27 M0 88.27 C-0.61 64.49, -0.36 41.53, 0 0 M0 88.27 C0.04 57.49, 0.42 27.74, 0 0" stroke="transparent" stroke-width="2" fill="none"></path></g><g stroke-linecap="round" transform="translate(1405.5261545364074 521.9687849628226) rotate(0 9.299931990307414 10.82840758427696)"><path d="M4.65 0 C8.52 -1.38, 9.21 -0.86, 13.95 0 C15.08 2.73, 21.85 0.46, 18.6 4.65 C17.23 9.77, 19.47 15.78, 18.6 17.01 C21.47 20.57, 17.86 20.84, 13.95 21.66 C11.71 21.42, 9 22.01, 4.65 21.66 C3.52 18.48, 2.17 20.59, 0 17.01 C-0.57 15.34, 1.28 11.62, 0 4.65 C-2.53 -0.4, 3.01 2.12, 4.65 0" stroke="none" stroke-width="0" fill="#40c057"></path><path d="M4.65 0 C7.02 -0.28, 10.72 0.71, 13.95 0 M13.95 0 C17.25 -1.85, 17.93 2.4, 18.6 4.65 M18.6 4.65 C18.16 6.74, 19.67 11.88, 18.6 17.01 M18.6 17.01 C17.21 21.97, 18.2 22.6, 13.95 21.66 M13.95 21.66 C11.17 22.6, 9.6 21.08, 4.65 21.66 M4.65 21.66 C2.51 21.64, 0.66 19.25, 0 17.01 M0 17.01 C-0.83 13.57, 0.08 11, 0 4.65 M0 4.65 C0.48 0.61, 1.6 0.83, 4.65 0" stroke="transparent" stroke-width="1.5" fill="none" stroke-dasharray="8 9"></path></g><g stroke-linecap="round" transform="translate(466.3160329984121 570.1261665328148) rotate(0 9.299931990307414 20.72894388644289)"><path d="M4.65 0 C5.93 -0.86, 7.64 1.42, 13.95 0 C20.3 -1.09, 20.93 -1.29, 18.6 4.65 C19.99 17.13, 21.16 23.22, 18.6 36.81 C19.41 39.09, 18.71 40.88, 13.95 41.46 C12.82 41.82, 9.64 39.96, 4.65 41.46 C3.72 41.95, -1.27 43.22, 0 36.81 C2.49 28.57, -2.43 14.66, 0 4.65 C1.46 3.67, 2.07 1.37, 4.65 0" stroke="none" stroke-width="0" fill="#40c057"></path><path d="M4.65 0 C8.38 0.79, 11.43 -0.84, 13.95 0 M13.95 0 C16.38 0.85, 17.52 1.89, 18.6 4.65 M18.6 4.65 C20.17 14.21, 17.09 21.9, 18.6 36.81 M18.6 36.81 C19.75 40.85, 15.09 41.28, 13.95 41.46 M13.95 41.46 C10.12 40.93, 7.93 41.54, 4.65 41.46 M4.65 41.46 C2.21 40.61, -0.93 39.16, 0 36.81 M0 36.81 C0.28 28.53, 0.71 18.48, 0 4.65 M0 4.65 C0.05 2.38, 1.19 0.23, 4.65 0" stroke="transparent" stroke-width="1.5" fill="none" stroke-dasharray="8 9"></path></g><g stroke-linecap="round" transform="translate(1204.2668427782655 341.20762504005097) rotate(0 9.299931990307414 32.95901814205962)"><path d="M4.65 0 C5.67 1.37, 10.04 -0.4, 13.95 0 C19.38 -2.84, 17.94 -0.38, 18.6 4.65 C21.95 23.66, 19.89 40.93, 18.6 61.27 C20.26 63.79, 16.37 68.03, 13.95 65.92 C12.19 64.48, 9.61 66.18, 4.65 65.92 C0.28 69.23, 0.51 63.78, 0 61.27 C-3.21 38.24, 0.78 21.23, 0 4.65 C0.52 2.92, 4.56 -3.43, 4.65 0" stroke="none" stroke-width="0" fill="#40c057"></path><path d="M4.65 0 C7.31 -0.94, 9.46 0.32, 13.95 0 M13.95 0 C15.97 0.34, 17.38 0.8, 18.6 4.65 M18.6 4.65 C17.69 19.16, 20.23 30.89, 18.6 61.27 M18.6 61.27 C16.64 64.19, 18 63.98, 13.95 65.92 M13.95 65.92 C10.71 65.85, 6.89 65.46, 4.65 65.92 M4.65 65.92 C0.62 65.17, -0.59 62.96, 0 61.27 M0 61.27 C0.47 44.75, 0.04 30.95, 0 4.65 M0 4.65 C-0.36 1.78, -0.25 1.49, 4.65 0" stroke="transparent" stroke-width="1.5" fill="none" stroke-dasharray="8 9"></path></g><g stroke-linecap="round" transform="translate(835.2914378883388 220.28782831723265) rotate(0 9.299931990307414 52.760090746391484)"><path d="M4.65 0 C8.39 -0.63, 10.19 -1.45, 13.95 0 C16.39 -1.93, 19.59 3.25, 18.6 4.65 C20.79 41.85, 21.64 80.1, 18.6 100.87 C17.92 106.09, 16.61 108.72, 13.95 105.52 C11.95 105.6, 7.35 106.91, 4.65 105.52 C2.06 104.93, 2.6 106.37, 0 100.87 C2.67 69.13, 1.73 34.53, 0 4.65 C3.01 -1.88, 0.3 3.08, 4.65 0" stroke="none" stroke-width="0" fill="#40c057"></path><path d="M4.65 0 C7.9 0.48, 11.27 0.24, 13.95 0 M13.95 0 C15.83 -0.75, 17.07 3.24, 18.6 4.65 M18.6 4.65 C19.08 43.45, 15.97 80.18, 18.6 100.87 M18.6 100.87 C19.55 102.03, 18.97 104.24, 13.95 105.52 M13.95 105.52 C12.09 105.12, 9.18 105.17, 4.65 105.52 M4.65 105.52 C0.96 104.11, -0.5 104.02, 0 100.87 M0 100.87 C-0.18 70.85, -0.6 39.39, 0 4.65 M0 4.65 C-1.8 3.04, -0.28 -0.81, 4.65 0" stroke="transparent" stroke-width="1.5" fill="none" stroke-dasharray="8 9"></path></g><g stroke-linecap="round" transform="translate(935.9210937674097 246.9029021332176) rotate(0 9.299931990307414 70.52281764145388)"><path d="M4.65 0 C9.23 -1.27, 11.33 -0.85, 13.95 0 C18.04 1.7, 22.02 4.42, 18.6 4.65 C20.79 45.28, 18.46 89.19, 18.6 136.4 C18.16 142.7, 17.88 143.02, 13.95 141.05 C11.39 142.61, 10.25 140.79, 4.65 141.05 C4.15 143.45, 1.87 136.97, 0 136.4 C-0.44 105.37, 2.05 68.19, 0 4.65 C-1.25 4.63, -0.92 1.58, 4.65 0" stroke="none" stroke-width="0" fill="#40c057"></path><path d="M4.65 0 C6.08 0.12, 7.94 -0.39, 13.95 0 M13.95 0 C15.52 1.69, 20.47 0.16, 18.6 4.65 M18.6 4.65 C17.39 56.28, 20.31 106.33, 18.6 136.4 M18.6 136.4 C20.52 138.22, 15.71 142.01, 13.95 141.05 M13.95 141.05 C10.73 140.66, 8.11 140.35, 4.65 141.05 M4.65 141.05 C1.05 141.1, 0.41 139.98, 0 136.4 M0 136.4 C-0.4 103.31, -1.83 71.25, 0 4.65 M0 4.65 C-1.83 0.74, 0.34 -1.09, 4.65 0" stroke="transparent" stroke-width="1.5" fill="none" stroke-dasharray="8 9"></path></g><g stroke-linecap="round" transform="translate(600.48890750384 381.1966121076084) rotate(0 9.299931990307414 10.82840758427696)"><path d="M4.65 0 C6.85 -0.77, 10.13 0.92, 13.95 0 C20.47 2.87, 19.06 2.36, 18.6 4.65 C18.28 9.38, 18.43 13.48, 18.6 17.01 C19.43 22.08, 13.88 23.82, 13.95 21.66 C11.27 21.54, 9.33 22.93, 4.65 21.66 C3.42 19.13, -1.95 21.56, 0 17.01 C1.83 10.45, -0.8 10.04, 0 4.65 C-2.47 3.13, 4.29 -3.23, 4.65 0" stroke="none" stroke-width="0" fill="#e8590c"></path><path d="M4.65 0 C7.27 -0.37, 10.31 0.77, 13.95 0 M13.95 0 C18.92 -1.39, 20.46 2.7, 18.6 4.65 M18.6 4.65 C19.07 7.74, 19.67 12.44, 18.6 17.01 M18.6 17.01 C17.26 21.07, 17.03 22.32, 13.95 21.66 M13.95 21.66 C11.28 20.97, 8.93 21.65, 4.65 21.66 M4.65 21.66 C1.96 22.14, -0.94 20.16, 0 17.01 M0 17.01 C-1.09 13.71, -1.11 8.07, 0 4.65 M0 4.65 C-1.21 0.46, 3.07 1.81, 4.65 0" stroke="transparent" stroke-width="1.5" fill="none" stroke-dasharray="8 9"></path></g><g stroke-linecap="round" transform="translate(298.5999398666272 696.0239689818604) rotate(0 9.299931990307414 20.728943886442888)"><path d="M4.65 0 C7.17 0.88, 10.36 1.42, 13.95 0 C17.51 0.81, 17.78 3.21, 18.6 4.65 C18.05 16.99, 19.32 24.88, 18.6 36.81 C15.43 42.07, 17.54 40.18, 13.95 41.46 C11.51 42.55, 7.53 40.25, 4.65 41.46 C-0.4 42.92, 2.12 40.43, 0 36.81 C-1.73 29.02, -2.95 16.65, 0 4.65 C2.74 -1.68, 1.03 -3.07, 4.65 0" stroke="none" stroke-width="0" fill="#e8590c"></path><path d="M4.65 0 C6.88 0.82, 11.41 -0.61, 13.95 0 M13.95 0 C18.91 1.15, 19.54 -0.41, 18.6 4.65 M18.6 4.65 C20.68 12.73, 17.42 24.32, 18.6 36.81 M18.6 36.81 C18.58 40.57, 16.2 40.53, 13.95 41.46 M13.95 41.46 C11.28 41.42, 9.26 41.62, 4.65 41.46 M4.65 41.46 C0.61 41.51, 0.83 39.55, 0 36.81 M0 36.81 C-1.54 25.98, -0.92 15.68, 0 4.65 M0 4.65 C1.52 3.36, 0.95 1.3, 4.65 0" stroke="transparent" stroke-width="1.5" fill="none" stroke-dasharray="8 9"></path></g><g stroke-linecap="round" transform="translate(130.88384673484234 529.3980900698757) rotate(0 9.299931990307414 32.959018142059634)"><path d="M4.65 0 C8.53 1.25, 9.45 0.3, 13.95 0 C16.23 1.66, 18.02 0.87, 18.6 4.65 C19.31 26.93, 15.3 47.44, 18.6 61.27 C19.09 63.09, 20.36 66.43, 13.95 65.92 C12.18 64.85, 7.77 66.71, 4.65 65.92 C3.67 66.44, 1.37 67.37, 0 61.27 C-2.12 51.25, 3.09 34.85, 0 4.65 C-0.52 -1.52, 1.76 0.62, 4.65 0" stroke="none" stroke-width="0" fill="#e8590c"></path><path d="M4.65 0 C7.96 -0.72, 10.4 0.46, 13.95 0 M13.95 0 C17.99 -1.96, 18.42 2.5, 18.6 4.65 M18.6 4.65 C17.81 17.11, 19.13 28.3, 18.6 61.27 M18.6 61.27 C17.75 63.44, 16.3 65.32, 13.95 65.92 M13.95 65.92 C12.01 66.15, 9.24 65.94, 4.65 65.92 M4.65 65.92 C2.38 65.56, 0.23 62.57, 0 61.27 M0 61.27 C-0.69 38.98, 2.04 20.69, 0 4.65 M0 4.65 C-0.6 2.85, -0.03 -0.37, 4.65 0" stroke="transparent" stroke-width="1.5" fill="none" stroke-dasharray="8 9"></path></g><g stroke-linecap="round" transform="translate(1137.1804055255516 366.26619362669453) rotate(0 9.299931990307414 52.760090746391484)"><path d="M4.65 0 C8.09 0.24, 10.73 0.64, 13.95 0 C16.47 -0.68, 20.72 1.11, 18.6 4.65 C15.83 44.24, 19.49 78.23, 18.6 100.87 C21.91 104.48, 16.46 108.12, 13.95 105.52 C9.63 106.08, 8.11 105.64, 4.65 105.52 C2.92 108.53, -3.43 102.72, 0 100.87 C3.93 60.53, 0.67 23.58, 0 4.65 C0.21 2.17, -1.59 -2.16, 4.65 0" stroke="none" stroke-width="0" fill="#e8590c"></path><path d="M4.65 0 C9.09 0.6, 12.24 -0.85, 13.95 0 M13.95 0 C16.87 0.95, 16.66 3.47, 18.6 4.65 M18.6 4.65 C17.94 28.03, 17.11 49.16, 18.6 100.87 M18.6 100.87 C17.85 103.38, 15.64 105.02, 13.95 105.52 M13.95 105.52 C10.7 105.57, 8.71 105.37, 4.65 105.52 M4.65 105.52 C1.78 103.72, 1.49 102.14, 0 100.87 M0 100.87 C2.1 77.71, -0.02 52.22, 0 4.65 M0 4.65 C-1.58 1.18, 0.48 0.55, 4.65 0" stroke="transparent" stroke-width="1.5" fill="none" stroke-dasharray="8 9"></path></g><g stroke-linecap="round" transform="translate(734.6617820092679 149.7562057606733) rotate(0 9.299931990307414 70.52281764145388)"><path d="M4.65 0 C7.8 0.73, 11.44 -0.35, 13.95 0 C19.17 -0.44, 21.8 2.38, 18.6 4.65 C17 50.11, 19.82 98.63, 18.6 136.4 C18.01 142.1, 19.45 142.91, 13.95 141.05 C12.8 141.35, 10.31 142.51, 4.65 141.05 C-1.88 139.8, 3.08 137.03, 0 136.4 C-2.33 88.02, -1.59 46.42, 0 4.65 C-3.14 -0.61, 0.81 -0.11, 4.65 0" stroke="none" stroke-width="0" fill="#e8590c"></path><path d="M4.65 0 C7.23 -0.97, 8.85 0.39, 13.95 0 M13.95 0 C15.11 1.92, 17.32 0.21, 18.6 4.65 M18.6 4.65 C17.74 49.57, 17.84 95.76, 18.6 136.4 M18.6 136.4 C17.19 139, 17.1 141.46, 13.95 141.05 M13.95 141.05 C11.32 140.88, 8.03 140.21, 4.65 141.05 M4.65 141.05 C3.04 139.22, -0.81 138.29, 0 136.4 M0 136.4 C-1.6 105.37, -2.58 71.39, 0 4.65 M0 4.65 C-1.07 2.1, 2.49 1.9, 4.65 0" stroke="transparent" stroke-width="1.5" fill="none" stroke-dasharray="8 9"></path></g><g stroke-linecap="round"><g transform="translate(1045.8230687605092 197.64558703496232) rotate(0 -0.395862803578666 83.91525542122986)"><path d="M-1.18 -0.11 C-1.33 27.82, -0.46 140.01, -0.2 168.12 M0.4 -1.21 C0.09 26.77, -0.82 140.6, -0.85 169.04" stroke="#e8590c" stroke-width="4" fill="none"></path></g></g><mask></mask><g stroke-linecap="round" transform="translate(1036.5507496464807 210.20988129181978) rotate(0 9.299931990307414 70.52281764145388)"><path d="M4.65 0 C8.85 -0.18, 12.58 0.42, 13.95 0 C19.02 -3.17, 20.77 2.04, 18.6 4.65 C20.19 42.11, 23.18 76.24, 18.6 136.4 C16.07 137.55, 18.51 143.16, 13.95 141.05 C9.43 140.61, 9.54 140.04, 4.65 141.05 C3.13 143.79, -3.23 138.97, 0 136.4 C-3.28 105.96, -0.88 79.75, 0 4.65 C1.64 -1.08, 1.08 -2.74, 4.65 0" stroke="none" stroke-width="0" fill="#e8590c"></path><path d="M4.65 0 C5.62 0.85, 7.81 -0.67, 13.95 0 M13.95 0 C18.01 -0.02, 19.26 0.7, 18.6 4.65 M18.6 4.65 C16.69 37.54, 18.16 71.85, 18.6 136.4 M18.6 136.4 C19.08 138.55, 17.1 141.87, 13.95 141.05 M13.95 141.05 C12.02 140.11, 8.33 140.4, 4.65 141.05 M4.65 141.05 C0.46 142.56, 1.81 138.89, 0 136.4 M0 136.4 C-0.03 88.88, 1.98 42.17, 0 4.65 M0 4.65 C1.59 1.81, 2 -0.45, 4.65 0" stroke="transparent" stroke-width="1.5" fill="none" stroke-dasharray="8 9"></path></g><g stroke-linecap="round" transform="translate(1003.0075310201237 212.30422309741652) rotate(0 9.299931990307414 70.52281764145388)"><path d="M4.65 0 C8.76 0.41, 10.8 -1.45, 13.95 0 C19.22 0.49, 17.33 4.86, 18.6 4.65 C20.61 47.9, 15.68 85.46, 18.6 136.4 C20.06 141.61, 17.57 142.41, 13.95 141.05 C11.82 139.84, 7.55 142.26, 4.65 141.05 C-1.68 140.52, -3.07 139.71, 0 136.4 C1.33 94.49, 3.71 50.18, 0 4.65 C-0.47 -1.19, 0.92 2.44, 4.65 0" stroke="none" stroke-width="0" fill="#40c057"></path><path d="M4.65 0 C7.29 -0.71, 11.56 -0.1, 13.95 0 M13.95 0 C17.71 -0.85, 17.67 0.8, 18.6 4.65 M18.6 4.65 C17.72 40.67, 18.15 74.93, 18.6 136.4 M18.6 136.4 C18.65 140.32, 16.69 141.27, 13.95 141.05 M13.95 141.05 C11.62 140.4, 9.53 141.67, 4.65 141.05 M4.65 141.05 C3.36 140.44, 1.3 137.92, 0 136.4 M0 136.4 C1.65 101.2, 2.3 62.46, 0 4.65 M0 4.65 C0.45 1.09, 2.47 -0.32, 4.65 0" stroke="transparent" stroke-width="1.5" fill="none" stroke-dasharray="8 9"></path></g><g stroke-linecap="round"><g transform="translate(1012.8413662622188 199.35345312247682) rotate(0 -0.3801347605844967 84.75496091631447)"><path d="M-0.8 0.58 C-1.12 28.98, -0.7 141.65, -0.79 169.68 M0.98 -0.17 C0.4 27.94, -1.19 139.44, -1.74 167.76" stroke="#40c057" stroke-width="4" fill="none"></path></g></g><mask></mask><g stroke-linecap="round" transform="translate(701.1185633829109 149.71072133306689) rotate(0 9.299931990307414 70.52281764145388)"><path d="M4.65 0 C8.66 0.37, 10.07 1.69, 13.95 0 C17.56 -0.59, 21.2 3.95, 18.6 4.65 C18.39 53.12, 17.45 98.73, 18.6 136.4 C21.61 136.07, 15.8 144.13, 13.95 141.05 C10.29 140.93, 8.22 141.27, 4.65 141.05 C2.17 137.9, -2.16 138.75, 0 136.4 C-1.55 94.53, -1.71 60.58, 0 4.65 C-0.56 -0.01, 1.08 -2.24, 4.65 0" stroke="none" stroke-width="0" fill="#40c057"></path><path d="M4.65 0 C7.13 -0.4, 8.55 -0.35, 13.95 0 M13.95 0 C16.46 -1.41, 18.1 1.6, 18.6 4.65 M18.6 4.65 C18.97 47.73, 18.56 89.37, 18.6 136.4 M18.6 136.4 C16.8 140.98, 15.22 140.24, 13.95 141.05 M13.95 141.05 C12.56 140.84, 10.1 140.38, 4.65 141.05 M4.65 141.05 C1.18 139.97, 0.55 140.44, 0 136.4 M0 136.4 C-0.6 83.89, -0.13 31.97, 0 4.65 M0 4.65 C-0.38 2.73, 1.3 1.78, 4.65 0" stroke="transparent" stroke-width="1.5" fill="none" stroke-dasharray="8 9"></path></g><g stroke-linecap="round"><g transform="translate(711.7391729441188 94.66442556899483) rotate(0 -0.4953380875251696 84.85751365137497)"><path d="M-0.51 -0.56 C-0.71 27.53, -1.04 140.67, -1.23 168.92 M1.42 1.76 C1.02 29.99, -2.31 142.21, -2.41 170.27" stroke="#40c057" stroke-width="4" fill="none"></path></g></g><mask></mask><g stroke-linecap="round" transform="translate(667.5753447565539 286.29484448472977) rotate(0 9.299931990307414 70.52281764145388)"><path d="M4.65 0 C7.8 -0.43, 11.69 0.96, 13.95 0 C18.92 -2.53, 16.65 3.01, 18.6 4.65 C21.95 48.49, 17.69 102.28, 18.6 136.4 C16.13 141.07, 19.79 137.81, 13.95 141.05 C11.58 139.59, 7.63 140.71, 4.65 141.05 C1.44 142.69, -2.63 139.02, 0 136.4 C-0.14 105.35, -0.05 75.18, 0 4.65 C3.38 -0.66, 1.14 3.52, 4.65 0" stroke="none" stroke-width="0" fill="#40c057"></path><path d="M4.65 0 C6.77 -0.62, 9.21 0.06, 13.95 0 M13.95 0 C17.46 0.48, 17.66 1.6, 18.6 4.65 M18.6 4.65 C16.57 51.12, 16.53 93.81, 18.6 136.4 M18.6 136.4 C17.39 138.4, 18.57 142.85, 13.95 141.05 M13.95 141.05 C11.27 140.47, 9.19 141.41, 4.65 141.05 M4.65 141.05 C3.45 142.64, 0.26 139.95, 0 136.4 M0 136.4 C-0.98 101.04, -0.85 65.12, 0 4.65 M0 4.65 C0.46 2.64, -0.21 1.2, 4.65 0" stroke="transparent" stroke-width="1.5" fill="none" stroke-dasharray="8 9"></path></g><g stroke-linecap="round"><g transform="translate(678.6430138686947 317.637090035395) rotate(0 -0.3826151601931542 84.01271489289795)"><path d="M-0.85 -0.3 C-0.9 28.01, -0.8 141.36, -0.74 169.53 M0.91 -1.5 C0.75 26.46, -1.34 139, -1.68 167.54" stroke="#40c057" stroke-width="4" fill="none"></path></g></g><mask></mask><g stroke-linecap="round" transform="translate(801.7482192619818 324.2780934147336) rotate(0 9.299931990307414 52.760090746391484)"><path d="M4.65 0 C8.15 -1.29, 9.02 0.57, 13.95 0 C19.17 0.52, 19.97 4.56, 18.6 4.65 C15.53 25.93, 20.74 40.82, 18.6 100.87 C18.08 100.9, 17.26 106.14, 13.95 105.52 C11.92 106.25, 8.77 105.27, 4.65 105.52 C-1.19 104.89, 2.44 103.41, 0 100.87 C3.61 73.97, -0.18 55.01, 0 4.65 C0.09 1.45, 0.93 3.33, 4.65 0" stroke="none" stroke-width="0" fill="#40c057"></path><path d="M4.65 0 C6.98 0.22, 8.48 0.02, 13.95 0 M13.95 0 C17.88 -0.36, 18.83 -0.25, 18.6 4.65 M18.6 4.65 C16.51 39.58, 19.24 78.5, 18.6 100.87 M18.6 100.87 C18 105.27, 15.47 105.15, 13.95 105.52 M13.95 105.52 C12.54 106.3, 9.49 105.77, 4.65 105.52 M4.65 105.52 C1.09 106.44, -0.32 103.59, 0 100.87 M0 100.87 C0.58 67.44, -1.64 33.03, 0 4.65 M0 4.65 C0.27 0.84, 3.39 0.28, 4.65 0" stroke="transparent" stroke-width="1.5" fill="none" stroke-dasharray="8 9"></path></g><g stroke-linecap="round"><g transform="translate(812.0250628065833 308.30160918702995) rotate(0 -1.3565569667186992 69.36695110471163)"><path d="M0.29 -0.57 C-0.06 22.61, -1.64 116.05, -2.07 139.3 M-1.02 1.75 C-1.53 24.54, -2.64 114.34, -3 137.44" stroke="#40c057" stroke-width="4" fill="none"></path></g></g><mask></mask><g stroke-linecap="round" transform="translate(332.1431584929842 634.6060377563695) rotate(0 9.299931990307414 52.76009074639148)"><path d="M4.65 0 C7.77 0.17, 9.56 1.33, 13.95 0 C13.62 -1.25, 21.68 -0.92, 18.6 4.65 C19.4 34.66, 20.13 71.44, 18.6 100.87 C15.46 101.81, 16.31 105.41, 13.95 105.52 C9.46 105.2, 8.65 105.24, 4.65 105.52 C-0.01 105.05, -2.24 107.35, 0 100.87 C0.28 77.82, -0.43 58.29, 0 4.65 C-1.35 -0.44, 2.61 1.84, 4.65 0" stroke="none" stroke-width="0" fill="#40c057"></path><path d="M4.65 0 C8.05 -0.17, 10.79 -0.84, 13.95 0 M13.95 0 C18.54 -1.83, 17.79 0.34, 18.6 4.65 M18.6 4.65 C18.73 29.55, 17.75 51.49, 18.6 100.87 M18.6 100.87 C17.53 104.52, 17.99 107.42, 13.95 105.52 M13.95 105.52 C10.21 105.97, 6.74 105.37, 4.65 105.52 M4.65 105.52 C2.73 105.27, 1.78 104.43, 0 100.87 M0 100.87 C1.12 66.03, 2.69 32.89, 0 4.65 M0 4.65 C-0.33 3, 2.88 1.04, 4.65 0" stroke="transparent" stroke-width="1.5" fill="none" stroke-dasharray="8 9"></path></g><g stroke-linecap="round"><g transform="translate(344.06167099343475 585.6041413084417) rotate(0 -1.698391210026557 69.42870908321521)"><path d="M-0.22 0.14 C-0.75 23.34, -2.68 116.66, -3.18 139.69 M-1.79 -0.84 C-1.97 21.99, -1.18 114.67, -1.03 138.04" stroke="#40c057" stroke-width="4" fill="none"></path></g></g><mask></mask><g stroke-linecap="round" transform="translate(566.945688877483 381.7323140008125) rotate(0 9.299931990307414 52.760090746391484)"><path d="M4.65 0 C5.98 -0.72, 11.93 -1.29, 13.95 0 C18.63 2.74, 15.37 1.03, 18.6 4.65 C15.56 23.13, 17.96 45.84, 18.6 100.87 C20.24 101.34, 16.58 102.78, 13.95 105.52 C10.6 105.28, 7.65 107.07, 4.65 105.52 C-0.66 105.11, 3.52 104.06, 0 100.87 C-1.04 70.27, 1.36 45.5, 0 4.65 C-0.24 4.33, 3.55 3.14, 4.65 0" stroke="none" stroke-width="0" fill="#40c057"></path><path d="M4.65 0 C7.96 -0.77, 9.52 -0.48, 13.95 0 M13.95 0 C15.96 1.52, 20.41 0.95, 18.6 4.65 M18.6 4.65 C16.77 40.3, 18.79 76.76, 18.6 100.87 M18.6 100.87 C20.19 104.23, 17.5 105.07, 13.95 105.52 M13.95 105.52 C11.28 105.39, 8.34 105.72, 4.65 105.52 M4.65 105.52 C2.64 103.76, 1.2 104.24, 0 100.87 M0 100.87 C-1.21 76.85, 0.45 50.98, 0 4.65 M0 4.65 C-1.41 0.47, 2.36 1.18, 4.65 0" stroke="transparent" stroke-width="1.5" fill="none" stroke-dasharray="8 9"></path></g><g stroke-linecap="round"><g transform="translate(576.376205124352 405.21053332736847) rotate(0 -1.1365985828149405 68.77617481546649)"><path d="M-1.1 -0.49 C-1.39 22.39, -2.81 114.75, -2.83 138.15 M0.53 -1.79 C0.72 21.16, -0.16 116.02, -0.5 139.34" stroke="#40c057" stroke-width="4" fill="none"></path></g></g><mask></mask><g stroke-linecap="round" transform="translate(533.402470251126 486.05165077128004) rotate(0 9.299931990307414 32.959018142059634)"><path d="M4.65 0 C7.85 1.39, 8.08 -0.13, 13.95 0 C13.97 0.21, 19.22 -1.59, 18.6 4.65 C20.03 15.61, 17.92 29.07, 18.6 61.27 C17.97 66.8, 16.49 64.36, 13.95 65.92 C10.25 65.89, 10.25 66.11, 4.65 65.92 C1.45 65.29, 3.33 63.02, 0 61.27 C-0.54 50.19, 1.7 36.69, 0 4.65 C2.82 0.67, 3.45 3.54, 4.65 0" stroke="none" stroke-width="0" fill="#40c057"></path><path d="M4.65 0 C6.08 0.76, 9.37 -0.22, 13.95 0 M13.95 0 C18.35 -1.58, 18.23 0.48, 18.6 4.65 M18.6 4.65 C20.46 23.45, 19.32 41.29, 18.6 61.27 M18.6 61.27 C19.52 64.05, 16.67 67.09, 13.95 65.92 M13.95 65.92 C11.78 65.12, 9.16 66.07, 4.65 65.92 M4.65 65.92 C0.84 67.76, 0.28 64.04, 0 61.27 M0 61.27 C-1.78 39.11, 0.43 20.29, 0 4.65 M0 4.65 C0.29 2.31, 3.22 -1.9, 4.65 0" stroke="transparent" stroke-width="1.5" fill="none" stroke-dasharray="8 9"></path></g><g stroke-linecap="round"><g transform="translate(542.0696255925259 466.0766209966541) rotate(0 -1.0139518328019221 53.861113239359895)"><path d="M0.91 1.08 C0.73 19.05, -1.25 89.61, -1.8 107.11 M-0.07 0.61 C-0.38 18.29, -2.95 87.62, -2.94 105.4" stroke="#40c057" stroke-width="4" fill="none"></path></g></g><mask></mask><g stroke-linecap="round" transform="translate(1170.7236241519086 407.69750668181905) rotate(0 9.299931990307414 32.95901814205962)"><path d="M4.65 0 C6.72 0.12, 11.93 -1.44, 13.95 0 C14.89 -0.74, 18.49 3.19, 18.6 4.65 C17.84 19.94, 17.91 28.8, 18.6 61.27 C18.13 62.13, 20.43 63.71, 13.95 65.92 C11.22 65.63, 10.13 65.3, 4.65 65.92 C-0.44 66.98, 1.84 64.13, 0 61.27 C2.26 39.03, 1.34 22.09, 0 4.65 C-1.16 -1.88, 4.39 -1.18, 4.65 0" stroke="none" stroke-width="0" fill="#40c057"></path><path d="M4.65 0 C8.75 -0.71, 11.47 -0.47, 13.95 0 M13.95 0 C17.6 0.94, 20.5 3.14, 18.6 4.65 M18.6 4.65 C19.65 22.04, 18.35 41.25, 18.6 61.27 M18.6 61.27 C18.35 66.15, 17.51 67.01, 13.95 65.92 M13.95 65.92 C11.65 66.79, 10.14 65.78, 4.65 65.92 M4.65 65.92 C3 67.25, 1.04 62.96, 0 61.27 M0 61.27 C0.06 48.11, 1.44 31.52, 0 4.65 M0 4.65 C-0.69 3.26, 0.18 0.88, 4.65 0" stroke="transparent" stroke-width="1.5" fill="none" stroke-dasharray="8 9"></path></g><g stroke-linecap="round"><g transform="translate(1179.6173164546499 359.3194483073712) rotate(0 -0.6429979506769996 52.642256596517626)"><path d="M-0.95 -0.22 C-1.23 17.43, -2.1 88.72, -2.08 106.67 M0.76 -1.38 C0.9 15.82, 0.64 86.87, 0.29 104.72" stroke="#40c057" stroke-width="4" fill="none"></path></g></g><mask></mask><g stroke-linecap="round" transform="translate(1338.4397172836934 507.1537150784884) rotate(0 9.299931990307414 32.959018142059634)"><path d="M4.65 0 C6.49 -0.2, 10.29 0.91, 13.95 0 C14.42 -0.47, 15.86 0.92, 18.6 4.65 C17.98 23.23, 21.83 44.07, 18.6 61.27 C18.19 67.89, 17.14 65.82, 13.95 65.92 C10.4 66.35, 9.55 65.74, 4.65 65.92 C4.33 67.92, 3.14 67.19, 0 61.27 C-1.7 42.24, 2.3 28.89, 0 4.65 C-0.83 2.06, 3.6 -1.44, 4.65 0" stroke="none" stroke-width="0" fill="#40c057"></path><path d="M4.65 0 C6.96 0.49, 9.65 0.79, 13.95 0 M13.95 0 C17.31 0.45, 18.14 2.47, 18.6 4.65 M18.6 4.65 C18.25 22.51, 18.96 37.9, 18.6 61.27 M18.6 61.27 C16.84 65.57, 17.32 65.21, 13.95 65.92 M13.95 65.92 C10.98 66.52, 7.14 65.25, 4.65 65.92 M4.65 65.92 C0.47 66.73, 1.18 64.66, 0 61.27 M0 61.27 C-1.17 43.84, -1.84 23.87, 0 4.65 M0 4.65 C1.52 -0.25, 1.26 -1.71, 4.65 0" stroke="transparent" stroke-width="1.5" fill="none" stroke-dasharray="8 9"></path></g><g stroke-linecap="round"><g transform="translate(1349.374556783794 522.0055224389312) rotate(0 -0.1812988660492465 54.40118120311374)"><path d="M0.57 1.14 C0.59 18.83, -0.19 89, -0.48 106.49 M-0.6 0.69 C-0.59 18.58, -0.73 90.35, -0.93 108.11" stroke="#40c057" stroke-width="4" fill="none"></path></g></g><mask></mask><g stroke-linecap="round" transform="translate(164.4270653611993 554.1005220886259) rotate(0 9.299931990307414 20.72894388644289)"><path d="M4.65 0 C6.03 -0.3, 8.57 -0.37, 13.95 0 C19.49 -0.56, 17.04 1.08, 18.6 4.65 C18.74 15.82, 19.23 19.85, 18.6 36.81 C17.98 43.24, 15.7 39.47, 13.95 41.46 C12.18 42.38, 9.28 42.76, 4.65 41.46 C0.67 43.36, 3.54 38.75, 0 36.81 C-1.29 30.73, 1.59 22.21, 0 4.65 C-0.48 -0.7, 0.67 -2.58, 4.65 0" stroke="none" stroke-width="0" fill="#40c057"></path><path d="M4.65 0 C8 0.14, 10.9 0.35, 13.95 0 M13.95 0 C16.73 -0.38, 19.78 1.3, 18.6 4.65 M18.6 4.65 C16.91 18.36, 18.95 28.96, 18.6 36.81 M18.6 36.81 C20.44 40.19, 16.72 42.9, 13.95 41.46 M13.95 41.46 C10.04 41.77, 7.68 41.53, 4.65 41.46 M4.65 41.46 C2.31 43.13, -1.9 39.21, 0 36.81 M0 36.81 C1.74 22.61, -0.07 10.3, 0 4.65 M0 4.65 C0.12 1.9, -0.2 -1.2, 4.65 0" stroke="transparent" stroke-width="1.5" fill="none" stroke-dasharray="8 9"></path></g><g stroke-linecap="round"><g transform="translate(173.48864544388744 538.1768663629509) rotate(0 -0.4487563925442828 38.81397659207789)"><path d="M0.27 -0.27 C0.07 12.64, -0.01 64.52, -0.22 77.65 M-1.05 -1.46 C-1.44 11.63, -0.74 66.08, -0.88 79.09" stroke="#40c057" stroke-width="4" fill="none"></path></g></g><mask></mask><g stroke-linecap="round" transform="translate(432.7728143720551 610.774528656912) rotate(0 9.299931990307414 20.72894388644289)"><path d="M4.65 0 C8.45 -0.23, 9.26 -0.19, 13.95 0 C14.81 3.38, 16.39 1.14, 18.6 4.65 C17.99 20.78, 17.27 28.25, 18.6 36.81 C19.66 41.75, 16.81 44.24, 13.95 41.46 C10.23 42.47, 8.98 41.05, 4.65 41.46 C-1.88 44.3, -1.18 39.08, 0 36.81 C-0.81 24.46, -1.21 14.03, 0 4.65 C1.57 1.32, 4.77 -3.35, 4.65 0" stroke="none" stroke-width="0" fill="#40c057"></path><path d="M4.65 0 C7.5 -0.22, 11.19 -0.16, 13.95 0 M13.95 0 C18.83 0.46, 19.69 -0.21, 18.6 4.65 M18.6 4.65 C20.48 16.51, 18.31 29.26, 18.6 36.81 M18.6 36.81 C19.93 40.94, 15.64 40.38, 13.95 41.46 M13.95 41.46 C11.14 42.25, 6.73 41.15, 4.65 41.46 M4.65 41.46 C3.26 40.09, 0.88 41.43, 0 36.81 M0 36.81 C0.16 30.39, -1.7 22.09, 0 4.65 M0 4.65 C-0.41 1.49, 2.46 -1.46, 4.65 0" stroke="transparent" stroke-width="1.5" fill="none" stroke-dasharray="8 9"></path></g><g stroke-linecap="round"><g transform="translate(442.11927000146716 570.2399466699358) rotate(0 -1.1599279178808501 39.47183324585298)"><path d="M-0.23 0.71 C-0.47 13.89, -0.88 65.95, -0.92 78.91 M-1.8 0.03 C-2.27 12.92, -2.06 64.61, -1.95 77.35" stroke="#40c057" stroke-width="4" fill="none"></path></g></g><mask></mask><g stroke-linecap="round" transform="translate(365.68637711934116 591.7406659318967) rotate(0 9.299931990307414 20.72894388644289)"><path d="M4.65 0 C6.26 1.59, 8.91 -0.17, 13.95 0 C20.57 0.09, 18.5 0.93, 18.6 4.65 C19.45 19.12, 18.14 32.68, 18.6 36.81 C20.6 43.05, 19.87 40.58, 13.95 41.46 C9.07 42.72, 6.84 41.02, 4.65 41.46 C2.06 43.5, -1.44 39.43, 0 36.81 C1.71 28.94, 3.36 18.18, 0 4.65 C-1.44 0.99, -1.38 -3.02, 4.65 0" stroke="none" stroke-width="0" fill="#40c057"></path><path d="M4.65 0 C8.09 0.23, 10.39 -0.81, 13.95 0 M13.95 0 C18.25 0.27, 17.89 3.39, 18.6 4.65 M18.6 4.65 C19.88 15.79, 17.14 23.77, 18.6 36.81 M18.6 36.81 C19.41 41.08, 17.34 42.22, 13.95 41.46 M13.95 41.46 C11.18 40.79, 7.22 42.13, 4.65 41.46 M4.65 41.46 C-0.25 41.17, -1.71 40.03, 0 36.81 M0 36.81 C-0.13 26.55, 1.19 14.94, 0 4.65 M0 4.65 C-0.26 0.03, 1.2 1.35, 4.65 0" stroke="transparent" stroke-width="1.5" fill="none" stroke-dasharray="8 9"></path></g><g stroke-linecap="round"><g transform="translate(373.976387144633 599.2860156413676) rotate(0 -0.7552790470774653 39.26192023704388)"><path d="M0.28 0.66 C0 13.57, -1.69 65.77, -1.83 78.57 M-1.04 -0.04 C-0.94 13.05, 0.37 63.73, 0.32 76.82" stroke="#40c057" stroke-width="4" fill="none"></path></g></g><mask></mask><g stroke-linecap="round" transform="translate(1103.6371868991946 368.09893690763283) rotate(0 9.299931990307414 10.82840758427696)"><path d="M4.65 0 C9.95 0.06, 11.93 -0.27, 13.95 0 C20.38 -1.35, 16.61 2.61, 18.6 4.65 C19.82 10.93, 20.33 12.78, 18.6 17.01 C20.5 23.65, 15.89 18.22, 13.95 21.66 C10.66 22.57, 6.23 21.39, 4.65 21.66 C-0.7 20.78, -2.58 21.68, 0 17.01 C-1.09 13.03, -2.01 7.89, 0 4.65 C-3.09 1.45, 3.31 -1.44, 4.65 0" stroke="none" stroke-width="0" fill="#40c057"></path><path d="M4.65 0 C8.21 0.21, 10.33 0.94, 13.95 0 M13.95 0 C17.33 -0.33, 20.05 2.88, 18.6 4.65 M18.6 4.65 C19.01 9.72, 18.69 13.82, 18.6 17.01 M18.6 17.01 C20.27 18.2, 16.36 23.37, 13.95 21.66 M13.95 21.66 C10.96 21.59, 8.85 21.78, 4.65 21.66 M4.65 21.66 C1.9 19.91, -1.2 19.69, 0 17.01 M0 17.01 C-0.22 12.4, -0.27 10.5, 0 4.65 M0 4.65 C-0.31 0.68, 1.29 -1.24, 4.65 0" stroke="transparent" stroke-width="1.5" fill="none" stroke-dasharray="8 9"></path></g><g stroke-linecap="round"><g transform="translate(1112.8620753213845 354.61671083474675) rotate(0 -1.2649888123739856 27.047955881305228)"><path d="M0.16 -0.42 C-0.05 8.48, -1.69 44.95, -2.32 54.16 M-1.21 -1.69 C-1.39 7.37, -2.15 46.68, -2.69 55.79" stroke="#40c057" stroke-width="4" fill="none"></path></g></g><mask></mask><g stroke-linecap="round" transform="translate(499.85925162476906 548.1478860053271) rotate(0 9.299931990307414 10.82840758427696)"><path d="M4.65 0 C9.01 -0.6, 9.35 0.52, 13.95 0 C18.89 -0.24, 21.38 3.55, 18.6 4.65 C19.95 11.62, 18.06 12.1, 18.6 17.01 C21.44 18.92, 16.22 22.16, 13.95 21.66 C9.59 21.23, 6.11 22.36, 4.65 21.66 C1.32 24.88, -3.35 18.67, 0 17.01 C-1.73 13.43, 1.27 9.08, 0 4.65 C1.76 1.67, -0.92 0.96, 4.65 0" stroke="none" stroke-width="0" fill="#40c057"></path><path d="M4.65 0 C7.7 -0.24, 11.15 0.53, 13.95 0 M13.95 0 C18.09 -1.41, 17.52 2.36, 18.6 4.65 M18.6 4.65 C19.65 7.91, 18.19 14.58, 18.6 17.01 M18.6 17.01 C17.23 20.98, 18.57 19.86, 13.95 21.66 M13.95 21.66 C11.46 20.85, 8.08 21.47, 4.65 21.66 M4.65 21.66 C1.49 22.57, -1.46 19.84, 0 17.01 M0 17.01 C-0.17 13.71, -0.14 10.71, 0 4.65 M0 4.65 C1.88 0.32, 1.32 1.96, 4.65 0" stroke="transparent" stroke-width="1.5" fill="none" stroke-dasharray="8 9"></path></g><g stroke-linecap="round"><g transform="translate(511.53288615799556 499.32045740650665) rotate(0 -1.148586810659026 35.06569909952282)"><path d="M-0.2 0.87 C-0.6 12.48, -0.84 58.57, -1.3 69.85 M-1.76 0.28 C-2.35 11.53, -2.04 56.51, -1.83 68.06" stroke="#40c057" stroke-width="4" fill="none"></path></g></g><mask></mask><g stroke-linecap="round" transform="translate(265.05672124027024 673.2129730504016) rotate(0 9.299931990307414 10.82840758427696)"><path d="M4.65 0 C7.95 -0.16, 10.83 0.88, 13.95 0 C20.19 2.82, 17.72 3.45, 18.6 4.65 C20.28 8.84, 18.01 14.81, 18.6 17.01 C20.65 18.67, 16.57 19.41, 13.95 21.66 C11.28 23.23, 7.27 21.06, 4.65 21.66 C0.99 18.73, -3.02 17.01, 0 17.01 C0.98 13.41, -1.63 10.25, 0 4.65 C2.66 3.66, 4.54 3.22, 4.65 0" stroke="none" stroke-width="0" fill="#40c057"></path><path d="M4.65 0 C7.77 -0.72, 9.42 0.31, 13.95 0 M13.95 0 C18.23 0.29, 19.36 3.22, 18.6 4.65 M18.6 4.65 C17.71 7.72, 19.5 8.6, 18.6 17.01 M18.6 17.01 C18.31 18.4, 17.17 22, 13.95 21.66 M13.95 21.66 C11.94 22.06, 9.31 21.52, 4.65 21.66 M4.65 21.66 C0.03 21.31, 1.35 19.8, 0 17.01 M0 17.01 C1.18 13.08, -0.12 11.87, 0 4.65 M0 4.65 C0.05 1.5, 1.2 1.85, 4.65 0" stroke="transparent" stroke-width="1.5" fill="none" stroke-dasharray="8 9"></path></g><g stroke-linecap="round"><g transform="translate(275.74653726353245 673.5135121211629) rotate(0 -0.6967764933867784 34.644235175169825)"><path d="M-0.84 -0.65 C-1.25 10.9, -1.43 58.22, -1.62 69.94 M0.92 1.62 C0.33 12.78, -1.72 57.19, -2.31 68.19" stroke="#40c057" stroke-width="4" fill="none"></path></g></g><mask></mask><g stroke-linecap="round" transform="translate(768.2050006356249 289.37338010798385) rotate(0 9.299931990307414 70.52281764145388)"><path d="M4.65 0 C8.84 1.22, 9.69 0.79, 13.95 0 C20.59 -1.16, 15.17 4.39, 18.6 4.65 C20.1 38.4, 17.57 72.79, 18.6 136.4 C17.72 136.91, 18.62 140.81, 13.95 141.05 C10.07 139.62, 5.3 139.54, 4.65 141.05 C1.45 142.81, -1.44 141.26, 0 136.4 C4.29 98.53, 4.62 59.66, 0 4.65 C2.29 -1.96, 4.67 -3.41, 4.65 0" stroke="none" stroke-width="0" fill="#e8590c"></path><path d="M4.65 0 C7.33 0.1, 9.28 0.74, 13.95 0 M13.95 0 C15.15 -0.69, 20.31 0.18, 18.6 4.65 M18.6 4.65 C19.31 48.24, 19.72 95.59, 18.6 136.4 M18.6 136.4 C16.85 138.29, 16.64 140.99, 13.95 141.05 M13.95 141.05 C10.03 140.87, 8.15 140.89, 4.65 141.05 M4.65 141.05 C0.68 140.79, -1.24 141.38, 0 136.4 M0 136.4 C0.2 104.91, -0.2 75.38, 0 4.65 M0 4.65 C-0.75 0.44, 2.14 1.02, 4.65 0" stroke="transparent" stroke-width="1.5" fill="none" stroke-dasharray="8 9"></path></g><g stroke-linecap="round"><g transform="translate(778.1650265788239 238.67888554572392) rotate(0 -0.45076647394830616 84.36205599827429)"><path d="M0.17 0.46 C0.13 28.36, 0.45 139.83, 0.23 168.14 M-1.2 -0.35 C-1.35 27.6, -0.03 140.93, -0.2 169.07" stroke="#e8590c" stroke-width="4" fill="none"></path></g></g><mask></mask><g stroke-linecap="round" transform="translate(1237.8100614046225 343.07824829368246) rotate(0 9.299931990307414 70.52281764145388)"><path d="M4.65 0 C9.82 -0.63, 10.09 1.23, 13.95 0 C15.87 -0.83, 19.11 3.6, 18.6 4.65 C17.4 36.33, 19.85 72.94, 18.6 136.4 C21.82 136.15, 15.61 140.49, 13.95 141.05 C11.87 141.72, 9.21 141.72, 4.65 141.05 C1.67 138.58, 0.96 142.16, 0 136.4 C0.32 85.66, 1.15 38.53, 0 4.65 C2.11 0.12, 1.19 0.59, 4.65 0" stroke="none" stroke-width="0" fill="#e8590c"></path><path d="M4.65 0 C6.69 -0.4, 11.29 -0.72, 13.95 0 M13.95 0 C17.93 1.52, 16.8 1.26, 18.6 4.65 M18.6 4.65 C16.93 31.72, 18.26 61.13, 18.6 136.4 M18.6 136.4 C19.51 138.04, 16.79 139.52, 13.95 141.05 M13.95 141.05 C10.92 140.91, 8.12 141.91, 4.65 141.05 M4.65 141.05 C0.32 140.82, 1.96 139.54, 0 136.4 M0 136.4 C-0.52 96.12, 0.82 59.08, 0 4.65 M0 4.65 C-0.13 3.09, 2.66 1.74, 4.65 0" stroke="transparent" stroke-width="1.5" fill="none" stroke-dasharray="8 9"></path></g><g stroke-linecap="round"><g transform="translate(1247.3464544210765 363.70277797082326) rotate(0 -0.020086501324840356 85.16395745066201)"><path d="M-0.42 1.03 C-0.85 29.52, -1.69 141.94, -1.6 169.81 M1.57 0.52 C1.43 28.75, 0.97 139.89, 0.68 167.96" stroke="#e8590c" stroke-width="4" fill="none"></path></g></g><mask></mask><g stroke-linecap="round" transform="translate(868.8346565146958 220.39100608441368) rotate(0 9.299931990307414 52.760090746391484)"><path d="M4.65 0 C6.59 -0.52, 9.87 0.82, 13.95 0 C15.61 -0.48, 16.35 0.67, 18.6 4.65 C22.58 23.26, 17.92 48.01, 18.6 100.87 C15.67 100.95, 13.96 105.42, 13.95 105.52 C10.76 104.45, 7.91 106.84, 4.65 105.52 C3.66 108.51, 3.22 106.26, 0 100.87 C0.61 79.94, -1.86 62.47, 0 4.65 C2.33 -0.6, -1.78 -1.87, 4.65 0" stroke="none" stroke-width="0" fill="#e8590c"></path><path d="M4.65 0 C7.53 0.77, 8.75 -0.07, 13.95 0 M13.95 0 C15.34 0.12, 18.94 -0.2, 18.6 4.65 M18.6 4.65 C19.31 26.27, 18.14 49.29, 18.6 100.87 M18.6 100.87 C18.25 105.32, 16.74 104.65, 13.95 105.52 M13.95 105.52 C10.71 105.5, 9.52 105.63, 4.65 105.52 M4.65 105.52 C1.5 105.17, 1.85 103.22, 0 100.87 M0 100.87 C-0.42 78.87, 0.83 55.51, 0 4.65 M0 4.65 C1.57 1.06, 2.61 1.97, 4.65 0" stroke="transparent" stroke-width="1.5" fill="none" stroke-dasharray="8 9"></path></g><g stroke-linecap="round"><g transform="translate(877.5346214035744 199.6057543150332) rotate(0 0.14234893467278198 71.83067308986426)"><path d="M0.91 -1.08 C1.11 22.79, 0.42 119.4, 0.37 143.74 M-0.07 0.97 C0.03 24.91, -0.66 120.5, -0.66 144.74" stroke="#e8590c" stroke-width="4" fill="none"></path></g></g><mask></mask><g stroke-linecap="round" transform="translate(969.4643123937667 245.1996823504146) rotate(0 9.299931990307414 52.760090746391484)"><path d="M4.65 0 C6.56 -0.32, 8.76 -0.5, 13.95 0 C14.47 1.57, 18.37 4.77, 18.6 4.65 C14.98 21.55, 14.82 44.39, 18.6 100.87 C20.36 102.53, 18.81 105.64, 13.95 105.52 C12.78 107.03, 11.14 106.71, 4.65 105.52 C-1.96 108.64, -3.41 106.08, 0 100.87 C2.5 73.68, -3.16 48.92, 0 4.65 C1.93 2.84, 2.2 0.4, 4.65 0" stroke="none" stroke-width="0" fill="#e8590c"></path><path d="M4.65 0 C7.35 0.07, 11.81 -0.8, 13.95 0 M13.95 0 C15.85 -0.41, 18.54 2.46, 18.6 4.65 M18.6 4.65 C18.12 27.85, 18.17 47.47, 18.6 100.87 M18.6 100.87 C18.34 102.73, 18.93 104.29, 13.95 105.52 M13.95 105.52 C11.24 105.36, 9.44 105.17, 4.65 105.52 M4.65 105.52 C0.44 106.11, 1.02 103.84, 0 100.87 M0 100.87 C1.03 64.08, 0.52 30.24, 0 4.65 M0 4.65 C-0.64 -0.36, 3.13 -0.66, 4.65 0" stroke="transparent" stroke-width="1.5" fill="none" stroke-dasharray="8 9"></path></g><g stroke-linecap="round"><g transform="translate(979.4809967391066 195.63708106974764) rotate(0 0.15578389635084022 72.23624292666423)"><path d="M0.07 0.21 C0.02 24.39, -0.54 119.96, -0.5 144.04 M-1.35 -0.73 C-1.03 23.68, 1.54 120.74, 1.66 145.2" stroke="#e8590c" stroke-width="4" fill="none"></path></g></g><mask></mask><g stroke-linecap="round" transform="translate(231.51350261391326 590.6471601704379) rotate(0 9.299931990307414 52.76009074639148)"><path d="M4.65 0 C6.11 0.77, 9.87 1.54, 13.95 0 C13.7 -1.44, 18.04 -1.38, 18.6 4.65 C18.87 24, 18.87 46.37, 18.6 100.87 C16.13 104.93, 19.71 107.63, 13.95 105.52 C8.76 107.08, 5.24 106.61, 4.65 105.52 C0.12 105.16, 0.59 106.3, 0 100.87 C3.53 79.04, 2.25 55.04, 0 4.65 C-1.34 -1.17, 0.36 -3.59, 4.65 0" stroke="none" stroke-width="0" fill="#e8590c"></path><path d="M4.65 0 C6.94 -0.11, 10.31 0.51, 13.95 0 M13.95 0 C15.59 -0.26, 17.08 1.2, 18.6 4.65 M18.6 4.65 C18.19 38.78, 20.33 74.18, 18.6 100.87 M18.6 100.87 C18.37 105.93, 17.1 105.47, 13.95 105.52 M13.95 105.52 C10.81 105.76, 9.17 105.42, 4.65 105.52 M4.65 105.52 C3.09 106.63, 1.74 105.54, 0 100.87 M0 100.87 C-1.15 72.45, 1.07 47.2, 0 4.65 M0 4.65 C-0.46 1.83, 2.69 -0.8, 4.65 0" stroke="transparent" stroke-width="1.5" fill="none" stroke-dasharray="8 9"></path></g><g stroke-linecap="round"><g transform="translate(241.06396050974217 607.0113058732463) rotate(0 0.8144892911739134 71.93313351327883)"><path d="M-0.25 -0.04 C0.11 24.07, 0.99 119.91, 1.1 143.89 M1.82 -1.1 C2.16 23.19, 0.82 120.67, 0.44 144.97" stroke="#e8590c" stroke-width="4" fill="none"></path></g></g><mask></mask><g stroke-linecap="round" transform="translate(902.3778751410528 319.0184974118033) rotate(0 9.299931990307414 32.95901814205962)"><path d="M4.65 0 C6.29 -0.82, 10.78 -1.51, 13.95 0 C14.03 -3.09, 18.5 3.31, 18.6 4.65 C16.63 20.32, 21.76 36.18, 18.6 61.27 C21.59 67.59, 19.34 62.41, 13.95 65.92 C9.69 65.85, 7.03 67.1, 4.65 65.92 C-0.6 62.58, -1.87 66.3, 0 61.27 C-1.53 39.54, -1.38 19.65, 0 4.65 C3.41 0.41, 3.88 3.42, 4.65 0" stroke="none" stroke-width="0" fill="#e8590c"></path><path d="M4.65 0 C6.57 -0.16, 9.14 -0.21, 13.95 0 M13.95 0 C18.4 -0.31, 17.73 1.29, 18.6 4.65 M18.6 4.65 C18.91 20.07, 19.18 31.53, 18.6 61.27 M18.6 61.27 C18.25 66.22, 16.3 64.81, 13.95 65.92 M13.95 65.92 C11.6 66.43, 8.63 66.64, 4.65 65.92 M4.65 65.92 C1.06 66.98, 1.97 63.72, 0 61.27 M0 61.27 C-0.91 49.96, 0.69 37.3, 0 4.65 M0 4.65 C-0.27 0.3, 1.06 -1.44, 4.65 0" stroke="transparent" stroke-width="1.5" fill="none" stroke-dasharray="8 9"></path></g><g stroke-linecap="round"><g transform="translate(911.9888010461655 300.2801185509329) rotate(0 -0.9878724500504177 51.12933938113477)"><path d="M-0.16 -0.91 C-0.3 16.43, -0.3 86.05, -0.32 103.17 M-1.7 1.22 C-2.07 18.3, -1.47 84.53, -1.38 101.48" stroke="#e8590c" stroke-width="4" fill="none"></path></g></g><mask></mask><g stroke-linecap="round" transform="translate(1271.3532800309795 483.57758861582806) rotate(0 9.299931990307414 32.959018142059634)"><path d="M4.65 0 C5.67 -1.3, 9.44 0.96, 13.95 0 C15.61 1.76, 18.72 -0.92, 18.6 4.65 C22.34 26.36, 21.64 38.13, 18.6 61.27 C21.72 60.96, 19.16 64.49, 13.95 65.92 C10.25 64.48, 7.69 66.92, 4.65 65.92 C2.84 66.56, 0.4 63.02, 0 61.27 C3.75 47.42, 2.67 39.25, 0 4.65 C-2.95 2.04, 4.72 2.09, 4.65 0" stroke="none" stroke-width="0" fill="#e8590c"></path><path d="M4.65 0 C7.95 -0.13, 9.58 -0.1, 13.95 0 M13.95 0 C15.81 1.88, 17.37 1.32, 18.6 4.65 M18.6 4.65 C18.27 29.03, 17.87 48.6, 18.6 61.27 M18.6 61.27 C19.19 65.39, 16.92 67.46, 13.95 65.92 M13.95 65.92 C10.42 66.48, 8.25 65.69, 4.65 65.92 M4.65 65.92 C-0.36 67.5, -0.66 63.91, 0 61.27 M0 61.27 C-0.59 42.24, -0.81 24.27, 0 4.65 M0 4.65 C0.87 1.42, 3.34 -1.86, 4.65 0" stroke="transparent" stroke-width="1.5" fill="none" stroke-dasharray="8 9"></path></g><g stroke-linecap="round"><g transform="translate(1280.5792179651162 436.302931310503) rotate(0 -0.9934911226068834 51.11980999154942)"><path d="M-0.19 -0.52 C-0.2 16.28, -0.47 84.59, -0.27 101.61 M-1.74 1.82 C-1.9 18.69, -1.73 85.97, -1.3 102.76" stroke="#e8590c" stroke-width="4" fill="none"></path></g></g><mask></mask><g stroke-linecap="round" transform="translate(399.22959574569813 588.8467487704288) rotate(0 9.299931990307414 32.959018142059634)"><path d="M4.65 0 C5.97 0.74, 8.69 -1.23, 13.95 0 C18.01 2.66, 20.71 4.54, 18.6 4.65 C22.37 23.29, 21.36 47.31, 18.6 61.27 C18.24 64.95, 19.38 63.77, 13.95 65.92 C12.62 66.31, 10.28 65.38, 4.65 65.92 C-1.17 64.72, -3.59 67.78, 0 61.27 C-3.61 46.57, 2.51 32.96, 0 4.65 C2.42 1.23, 4.37 1.37, 4.65 0" stroke="none" stroke-width="0" fill="#e8590c"></path><path d="M4.65 0 C6.72 0.89, 9.37 -0.09, 13.95 0 M13.95 0 C19.01 0.05, 18.55 1.2, 18.6 4.65 M18.6 4.65 C18.98 27.9, 18.25 50.65, 18.6 61.27 M18.6 61.27 C19.71 66.11, 18.62 65.43, 13.95 65.92 M13.95 65.92 C9.78 66.62, 7.08 65.67, 4.65 65.92 M4.65 65.92 C1.83 67.06, -0.8 64.1, 0 61.27 M0 61.27 C1.01 47.69, 1.93 32.5, 0 4.65 M0 4.65 C-0.8 1.24, -0.08 -1.68, 4.65 0" stroke="transparent" stroke-width="1.5" fill="none" stroke-dasharray="8 9"></path></g><g stroke-linecap="round"><g transform="translate(409.0673664631786 596.1083749167888) rotate(0 -0.07042541969917693 51.39911925402908)"><path d="M1.13 -0.74 C1.11 16.64, -0.05 86.36, -0.25 103.54 M0.26 1.49 C0.09 18.63, -1.09 85.01, -1.27 102.03" stroke="#e8590c" stroke-width="4" fill="none"></path></g></g><mask></mask><g stroke-linecap="round" transform="translate(1371.9829359100504 503.0845102360199) rotate(0 9.299931990307414 20.72894388644289)"><path d="M4.65 0 C8.34 1.35, 12.12 1.51, 13.95 0 C20.27 2.29, 15.09 4.67, 18.6 4.65 C18.58 11.84, 21.27 15.71, 18.6 36.81 C15.27 38.04, 18.98 42.75, 13.95 41.46 C9.73 40.84, 6.37 42.98, 4.65 41.46 C0.41 43.79, 3.42 36.96, 0 36.81 C1.91 26.4, 2.31 18, 0 4.65 C-2.1 -1.47, -0.47 2.41, 4.65 0" stroke="none" stroke-width="0" fill="#e8590c"></path><path d="M4.65 0 C9.22 0.03, 11.95 -0.15, 13.95 0 M13.95 0 C18.9 -0.75, 17.49 2.14, 18.6 4.65 M18.6 4.65 C19.69 17.69, 20.15 26.75, 18.6 36.81 M18.6 36.81 C19.66 41.88, 16.41 39.55, 13.95 41.46 M13.95 41.46 C10.56 41.97, 6.53 41.31, 4.65 41.46 M4.65 41.46 C0.3 40.97, -1.44 40.78, 0 36.81 M0 36.81 C-1.09 27.06, -1.91 16.25, 0 4.65 M0 4.65 C-1.72 1.5, 2.53 -0.8, 4.65 0" stroke="transparent" stroke-width="1.5" fill="none" stroke-dasharray="8 9"></path></g><g stroke-linecap="round"><g transform="translate(1381.7778716967468 487.4201332747166) rotate(0 -0.7307496608757447 37.60605138659335)"><path d="M0.03 -0.03 C0 12.49, -0.22 63.88, -0.32 76.31 M-1.42 -1.09 C-1.61 11.63, -1.35 62, -1.38 74.77" stroke="#e8590c" stroke-width="4" fill="none"></path></g></g><mask></mask><g stroke-linecap="round" transform="translate(1070.0939682728376 346.5701458310268) rotate(0 9.299931990307414 20.72894388644289)"><path d="M4.65 0 C9.62 0.93, 9.97 1.31, 13.95 0 C13.64 2.11, 17.17 1.19, 18.6 4.65 C15.64 12.95, 20.9 26.28, 18.6 36.81 C19.25 40.31, 15.71 38.74, 13.95 41.46 C10.94 42.7, 10.58 40.25, 4.65 41.46 C2.04 44.62, 2.09 42.33, 0 36.81 C-2.55 24.42, -2.48 20.48, 0 4.65 C-3.35 4.7, 3.61 -1.39, 4.65 0" stroke="none" stroke-width="0" fill="#e8590c"></path><path d="M4.65 0 C8.32 -0.33, 9.76 0.29, 13.95 0 M13.95 0 C18.07 -0.13, 20.14 2.66, 18.6 4.65 M18.6 4.65 C19.91 19.07, 18.21 27.64, 18.6 36.81 M18.6 36.81 C20.18 39.25, 16.59 41.74, 13.95 41.46 M13.95 41.46 C10.05 41.22, 6.64 41.85, 4.65 41.46 M4.65 41.46 C1.42 43.25, -1.86 39.11, 0 36.81 M0 36.81 C-1.46 27.61, 1.24 17.71, 0 4.65 M0 4.65 C0.98 1.62, 0.18 0.53, 4.65 0" stroke="transparent" stroke-width="1.5" fill="none" stroke-dasharray="8 9"></path></g><g stroke-linecap="round"><g transform="translate(1079.299395652868 310.0312514765915) rotate(0 0.49739051613119045 37.57344306378948)"><path d="M-0.45 -0.66 C-0.37 11.79, 0.2 63.01, 0.24 75.81 M1.52 1.6 C1.48 14.21, -0.1 61.9, -0.52 74.01" stroke="#e8590c" stroke-width="4" fill="none"></path></g></g><mask></mask><g stroke-linecap="round" transform="translate(197.9702839875563 554.0838073476157) rotate(0 9.299931990307414 20.72894388644289)"><path d="M4.65 0 C6.45 0.84, 10.75 -0.31, 13.95 0 C17.64 2.33, 16.45 -1.78, 18.6 4.65 C19.56 13.03, 17.57 17.89, 18.6 36.81 C17.4 36.32, 20.46 40.32, 13.95 41.46 C10.79 42.79, 8.14 42.45, 4.65 41.46 C1.23 44.28, 1.37 37.81, 0 36.81 C-3.03 33.01, 2.38 21.52, 0 4.65 C3.38 4.77, 3.62 -2.79, 4.65 0" stroke="none" stroke-width="0" fill="#e8590c"></path><path d="M4.65 0 C7.57 -0.09, 10.25 0.49, 13.95 0 M13.95 0 C18.79 1.57, 18.11 2.61, 18.6 4.65 M18.6 4.65 C20.07 16.8, 18.03 30.55, 18.6 36.81 M18.6 36.81 C19.74 39.11, 16.78 40.21, 13.95 41.46 M13.95 41.46 C11.33 42.33, 7.96 41.13, 4.65 41.46 M4.65 41.46 C1.24 39.83, -1.68 38.19, 0 36.81 M0 36.81 C0.82 27.31, -1.53 18.22, 0 4.65 M0 4.65 C1.48 2.72, 3.21 1.79, 4.65 0" stroke="transparent" stroke-width="1.5" fill="none" stroke-dasharray="8 9"></path></g><g stroke-linecap="round"><g transform="translate(207.30050840978947 561.603919783815) rotate(0 -0.5172208246083301 38.304567310808665)"><path d="M-0.08 0.93 C-0.05 13.53, 0.4 63.91, 0.55 76.24 M-1.58 0.37 C-1.68 12.6, -0.4 62.05, -0.04 74.67" stroke="#e8590c" stroke-width="4" fill="none"></path></g></g><mask></mask><g stroke-linecap="round" transform="translate(1304.8964986573365 552.2515230582899) rotate(0 9.299931990307414 10.82840758427696)"><path d="M4.65 0 C8.26 1.1, 10.32 -1.53, 13.95 0 C15.18 1.93, 19.89 2.2, 18.6 4.65 C17.78 6.28, 20.62 11.64, 18.6 17.01 C20.93 23.52, 14.1 22.15, 13.95 21.66 C10.2 23.08, 7.37 20.79, 4.65 21.66 C-1.47 19.63, 2.41 16.75, 0 17.01 C1.96 14.21, 1.15 5.7, 0 4.65 C-0.03 1.2, 3.31 -2.32, 4.65 0" stroke="none" stroke-width="0" fill="#e8590c"></path><path d="M4.65 0 C8.19 0.68, 9.88 0.44, 13.95 0 M13.95 0 C19.02 -0.64, 16.69 3.13, 18.6 4.65 M18.6 4.65 C19.27 7.46, 18.41 10.48, 18.6 17.01 M18.6 17.01 C18.11 18.67, 17.92 21.53, 13.95 21.66 M13.95 21.66 C10.18 20.86, 5.93 20.82, 4.65 21.66 M4.65 21.66 C1.5 22.64, -0.8 21.09, 0 17.01 M0 17.01 C1 13.98, 1.11 10.61, 0 4.65 M0 4.65 C1.27 -0.4, 3.28 -1.89, 4.65 0" stroke="transparent" stroke-width="1.5" fill="none" stroke-dasharray="8 9"></path></g><g stroke-linecap="round"><g transform="translate(1313.0563393763987 537.9454737341234) rotate(0 0.09193612390117778 24.85217605227409)"><path d="M0.94 -0.29 C0.81 8.06, 0.21 43, -0.14 51.2 M-0.02 -1.49 C-0.32 7.08, -0.41 41.18, -0.76 49.7" stroke="#e8590c" stroke-width="4" fill="none"></path></g></g><mask></mask><g stroke-linecap="round" transform="translate(634.032126130197 402.6878829145139) rotate(0 9.299931990307414 10.82840758427696)"><path d="M4.65 0 C7.17 1.05, 12.03 0.46, 13.95 0 C17.45 -1.34, 15.88 0.36, 18.6 4.65 C20.25 9.24, 16.99 9.91, 18.6 17.01 C21.76 22.2, 19.47 21.34, 13.95 21.66 C9.02 20.62, 8.03 20, 4.65 21.66 C4.7 23.71, -1.39 23.48, 0 17.01 C-0.15 11.98, 0.96 5.94, 0 4.65 C3.06 -0.52, 1.62 -1.07, 4.65 0" stroke="none" stroke-width="0" fill="#e8590c"></path><path d="M4.65 0 C9.08 -0.35, 10.8 0.68, 13.95 0 M13.95 0 C16.39 -0.46, 18.88 2.69, 18.6 4.65 M18.6 4.65 C18.28 6.98, 19.12 11, 18.6 17.01 M18.6 17.01 C20.39 18.25, 16.25 21.35, 13.95 21.66 M13.95 21.66 C11.89 22.03, 9.51 22.03, 4.65 21.66 M4.65 21.66 C1.62 20.28, 0.53 21.58, 0 17.01 M0 17.01 C0.68 11.37, 0.97 6.98, 0 4.65 M0 4.65 C1.17 0.76, 1.35 0.33, 4.65 0" stroke="transparent" stroke-width="1.5" fill="none" stroke-dasharray="8 9"></path></g><g stroke-linecap="round"><g transform="translate(645.0585696865737 372.2973363378237) rotate(0 0.6103501298412084 24.904497578533267)"><path d="M-0.39 -1.14 C-0.46 6.93, 0.28 41.07, 0.17 49.62 M1.61 0.87 C1.4 9.62, 0.32 42.5, -0.28 50.95" stroke="#e8590c" stroke-width="4" fill="none"></path></g></g><mask></mask><g stroke-linecap="round" transform="translate(1439.0693731627644 522.8975240473706) rotate(0 9.299931990307414 10.82840758427696)"><path d="M4.65 0 C8.13 -0.65, 9.96 -0.59, 13.95 0 C13.46 3.41, 17.46 3.88, 18.6 4.65 C20.37 10.82, 19.91 14.21, 18.6 17.01 C21.42 21.47, 14.95 18.63, 13.95 21.66 C13.15 22.46, 8.77 23.07, 4.65 21.66 C4.77 23.72, -2.79 20.07, 0 17.01 C1.78 12.14, -0.07 9.17, 0 4.65 C-0.74 0.94, -0.19 -0.68, 4.65 0" stroke="none" stroke-width="0" fill="#e8590c"></path><path d="M4.65 0 C6.84 -0.29, 9.76 0.46, 13.95 0 M13.95 0 C16.25 -0.27, 17.35 1.06, 18.6 4.65 M18.6 4.65 C19.76 6.32, 18.16 10.1, 18.6 17.01 M18.6 17.01 C16.97 18.43, 15.33 21.6, 13.95 21.66 M13.95 21.66 C10.74 21.06, 7.71 22.39, 4.65 21.66 M4.65 21.66 C2.72 23.32, 1.79 21.38, 0 17.01 M0 17.01 C0.62 14.01, -0.23 12.2, 0 4.65 M0 4.65 C1.29 0.36, -0.3 -1.04, 4.65 0" stroke="transparent" stroke-width="1.5" fill="none" stroke-dasharray="8 9"></path></g><g stroke-linecap="round"><g transform="translate(1448.770687192783 527.6229099191564) rotate(0 0.5469954188208703 25.01794689068842)"><path d="M-0.28 0.17 C-0.45 8.49, 0.02 41.36, -0.09 49.54 M1.78 -0.79 C1.42 7.73, -0.09 42.33, -0.68 50.82" stroke="#e8590c" stroke-width="4" fill="none"></path></g></g><mask></mask></svg>