<svg version="1.1" xmlns="http://www.w3.org/2000/svg" viewBox="0 0 2053.573793521453 1031.1223458038426" width="2053.573793521453" height="1031.1223458038426">
  <!-- svg-source:excalidraw -->
  
  <defs>
    <style class="style-fonts">
      
    </style>
    
  </defs>
  <g stroke-linecap="round" transform="translate(10 10) rotate(0 1016.7868967607266 505.5611729019213)"><path d="M0 0 C445.05 -2.07, 891.13 -1.76, 2033.57 0 M0 0 C612.88 2.23, 1225.93 2.39, 2033.57 0 M2033.57 0 C2033.38 203.08, 2033.32 406.16, 2033.57 1011.12 M2033.57 0 C2036.31 402.54, 2036.64 804.88, 2033.57 1011.12 M2033.57 1011.12 C1403.01 1008.07, 771.5 1007.75, 0 1011.12 M2033.57 1011.12 C1535.68 1016.61, 1037.75 1016.9, 0 1011.12 M0 1011.12 C3.82 776.33, 3.97 541.48, 0 0 M0 1011.12 C-1.06 671.46, -1.35 331.22, 0 0" stroke="transparent" stroke-width="2" fill="none"></path></g><g stroke-linecap="round" transform="translate(542.7689361998107 178.1216239429591) rotate(0 447.8778998542109 62.931748702142954)"><path d="M-0.55 0.36 L895.14 -1.27 L897.28 125.02 L0.34 126.2" stroke="none" stroke-width="0" fill="#c2255c20"></path><path d="M0 0 C298.06 -0.22, 596.41 -0.04, 895.76 0 M0 0 C226.17 0.43, 452.19 0, 895.76 0 M895.76 0 C897.48 32.96, 896.88 67.04, 895.76 125.86 M895.76 0 C897.33 28.96, 897.64 58.09, 895.76 125.86 M895.76 125.86 C610.22 125.49, 325.96 125.42, 0 125.86 M895.76 125.86 C569.34 129.37, 243.05 128.72, 0 125.86 M0 125.86 C-2.02 91.1, -1.74 54.44, 0 0 M0 125.86 C-0.71 95.3, -0.16 63.97, 0 0" stroke="transparent" stroke-width="2" fill="none"></path></g><g stroke-linecap="round" transform="translate(542.7689361998107 666.3742012032872) rotate(0 447.8778998542109 73.55658939211537)"><path d="M0.99 1.37 L894.22 1.44 L896.21 145.28 L0.39 145.33" stroke="none" stroke-width="0" fill="#a5d8ff20"></path><path d="M0 0 C265.98 -0.43, 532.92 0.06, 895.76 0 M0 0 C225.07 -0.14, 450.25 -0.21, 895.76 0 M895.76 0 C897.86 48.17, 897.67 93.85, 895.76 147.11 M895.76 0 C895.64 31.27, 894.89 61.08, 895.76 147.11 M895.76 147.11 C645.98 151.24, 396.89 151.02, 0 147.11 M895.76 147.11 C667.57 147.8, 439.82 148.08, 0 147.11 M0 147.11 C-0.86 116.71, -0.07 84.15, 0 0 M0 147.11 C-0.59 114.51, -1.37 82.64, 0 0" stroke="transparent" stroke-width="2" fill="none"></path></g><g stroke-linecap="round" transform="translate(542.7689361998107 305.0183173618011) rotate(0 447.8778998542109 30.23993119453644)"><path d="M1.13 0.45 L896.36 1.18 L896.23 60.99 L1.22 59.57" stroke="none" stroke-width="0" fill="#f08c0020"></path><path d="M0 0 C298.31 1.03, 596.37 1, 895.76 0 M0 0 C330.7 0.38, 661.06 -0.22, 895.76 0 M895.76 0 C896.73 24.84, 896.23 48.06, 895.76 60.48 M895.76 0 C895.81 14.84, 895.25 27.98, 895.76 60.48 M895.76 60.48 C606.3 63.22, 315.62 62.73, 0 60.48 M895.76 60.48 C701.41 61.35, 507.34 61.19, 0 60.48 M0 60.48 C0.1 49.26, -0.71 35.4, 0 0 M0 60.48 C0.08 44.43, 0.48 29.71, 0 0" stroke="transparent" stroke-width="2" fill="none"></path></g><g stroke-linecap="round" transform="translate(542.7689361998107 543.7861144307249) rotate(0 447.8778998542109 60.47986238907231)"><path d="M1.68 -0.7 L897.59 -1.62 L895.95 120.59 L0.45 121.04" stroke="none" stroke-width="0" fill="#0c859920"></path><path d="M0 0 C198.5 3.73, 397.19 3.38, 895.76 0 M0 0 C320.02 0.56, 641.05 0.57, 895.76 0 M895.76 0 C895.68 29.78, 895.47 57.46, 895.76 120.96 M895.76 0 C895.16 32.83, 896.44 66.22, 895.76 120.96 M895.76 120.96 C571.37 118.44, 245.96 118.49, 0 120.96 M895.76 120.96 C704.38 121.16, 512.68 121.44, 0 120.96 M0 120.96 C0.06 95.43, 0.94 65.23, 0 0 M0 120.96 C0.22 76.31, 0.19 32.89, 0 0" stroke="transparent" stroke-width="2" fill="none"></path></g><g stroke-linecap="round" transform="translate(542.7689361998107 406.35049387345725) rotate(0 447.8778998542109 21.249681379944263)"><path d="M-0.37 0.45 L895.84 0.93 L895.17 43.55 L-0.45 42.12" stroke="none" stroke-width="0" fill="#b2f2bb20"></path><path d="M0 0 C261.28 -2.17, 521.31 -1.9, 895.76 0 M0 0 C345.52 1.99, 690.44 2.29, 895.76 0 M895.76 0 C895.62 8.95, 894.42 20.31, 895.76 42.5 M895.76 0 C896.07 14.82, 896.2 31.87, 895.76 42.5 M895.76 42.5 C618.78 39.53, 342.56 38.76, 0 42.5 M895.76 42.5 C579.39 39.76, 263.44 40.05, 0 42.5 M0 42.5 C0.34 29.74, 0.78 15.58, 0 0 M0 42.5 C-0.43 29.91, -0.89 15.59, 0 0" stroke="transparent" stroke-width="2" fill="none"></path></g><g stroke-linecap="round" transform="translate(542.7689361998107 366.5313757654294) rotate(0 447.8778998542109 20.4323859422542)"><path d="M1.05 -0.45 L895.38 0.33 L897.05 39.92 L-1.15 39.09" stroke="none" stroke-width="0" fill="#ffec9920"></path><path d="M0 0 C194.24 -3.54, 388.55 -3.36, 895.76 0 M0 0 C235.22 1.62, 470.7 1.36, 895.76 0 M895.76 0 C894.4 11.06, 896.62 17.95, 895.76 40.86 M895.76 0 C896.62 14.2, 895.85 30.26, 895.76 40.86 M895.76 40.86 C567.68 42.15, 239.22 42.77, 0 40.86 M895.76 40.86 C661.91 41.28, 428.73 41.06, 0 40.86 M0 40.86 C0.59 29.42, -0.48 16.45, 0 0 M0 40.86 C0.18 31.96, 0.42 22.67, 0 0" stroke="transparent" stroke-width="2" fill="none"></path></g><g stroke-linecap="round" transform="translate(542.7689361998107 451.96190243893807) rotate(0 447.8778998542109 44.13395363526911)"><path d="M-0.94 -1.15 L893.98 -0.35 L896.81 88.24 L-0.85 87.67" stroke="none" stroke-width="0" fill="#09926820"></path><path d="M0 0 C318.83 0.95, 636.82 1.14, 895.76 0 M0 0 C268.71 2.42, 537.66 2.4, 895.76 0 M895.76 0 C896.17 31.5, 896.29 60.92, 895.76 88.27 M895.76 0 C895.07 25.79, 895.78 49.76, 895.76 88.27 M895.76 88.27 C690.57 86.89, 483.52 87.38, 0 88.27 M895.76 88.27 C627.66 89.1, 360.05 89.36, 0 88.27 M0 88.27 C-0.61 64.49, -0.36 41.53, 0 0 M0 88.27 C0.04 57.49, 0.42 27.74, 0 0" stroke="transparent" stroke-width="2" fill="none"></path></g></svg>